<?xml version="1.0" encoding="UTF-8"?>
<!DOCTYPE svg PUBLIC "-//W3C//DTD SVG 1.1//EN" "http://www.w3.org/Graphics/SVG/1.1/DTD/svg11.dtd">
<svg width="160mm" height="90mm" viewBox="0 0 16000 9000" version="1.1" xmlns="http://www.w3.org/2000/svg" xmlns:xlink="http://www.w3.org/1999/xlink" stroke-width="28.222" stroke-linejoin="round" xml:space="preserve">
 <path fill="rgb(255,255,255)" stroke="none" d="M 8000,8999 L 0,8999 0,19 15999,19 15999,8999 8000,8999 Z"/>
 <path fill="none" stroke="rgb(179,179,179)" stroke-linejoin="round" d="M 6917,7493 L 1127,7493 1127,199 12707,199 12707,7493 6917,7493 Z"/>
 <path fill="none" stroke="rgb(179,179,179)" stroke-linejoin="round" d="M 12707,7492 L 1127,7492"/>
 <path fill="none" stroke="rgb(179,179,179)" stroke-linejoin="round" d="M 12707,6580 L 1127,6580"/>
 <path fill="none" stroke="rgb(179,179,179)" stroke-linejoin="round" d="M 12707,5668 L 1127,5668"/>
 <path fill="none" stroke="rgb(179,179,179)" stroke-linejoin="round" d="M 12707,4756 L 1127,4756"/>
 <path fill="none" stroke="rgb(179,179,179)" stroke-linejoin="round" d="M 12707,3844 L 1127,3844"/>
 <path fill="none" stroke="rgb(179,179,179)" stroke-linejoin="round" d="M 12707,2932 L 1127,2932"/>
 <path fill="none" stroke="rgb(179,179,179)" stroke-linejoin="round" d="M 12707,2021 L 1127,2021"/>
 <path fill="none" stroke="rgb(179,179,179)" stroke-linejoin="round" d="M 12707,1109 L 1127,1109"/>
 <path fill="none" stroke="rgb(179,179,179)" stroke-linejoin="round" d="M 12707,198 L 1127,198"/>
 <path fill="none" stroke="rgb(179,179,179)" stroke-linejoin="round" d="M 1127,7642 L 1127,7492"/>
 <path fill="none" stroke="rgb(179,179,179)" stroke-linejoin="round" d="M 1127,7642 L 1127,7492"/>
 <path fill="none" stroke="rgb(179,179,179)" stroke-linejoin="round" d="M 1242,7642 L 1242,7492"/>
 <path fill="none" stroke="rgb(179,179,179)" stroke-linejoin="round" d="M 1242,7642 L 1242,7492"/>
 <path fill="none" stroke="rgb(179,179,179)" stroke-linejoin="round" d="M 1358,7642 L 1358,7492"/>
 <path fill="none" stroke="rgb(179,179,179)" stroke-linejoin="round" d="M 1358,7642 L 1358,7492"/>
 <path fill="none" stroke="rgb(179,179,179)" stroke-linejoin="round" d="M 1474,7642 L 1474,7492"/>
 <path fill="none" stroke="rgb(179,179,179)" stroke-linejoin="round" d="M 1474,7642 L 1474,7492"/>
 <path fill="none" stroke="rgb(179,179,179)" stroke-linejoin="round" d="M 1590,7642 L 1590,7492"/>
 <path fill="none" stroke="rgb(179,179,179)" stroke-linejoin="round" d="M 1590,7642 L 1590,7492"/>
 <path fill="none" stroke="rgb(179,179,179)" stroke-linejoin="round" d="M 1706,7642 L 1706,7492"/>
 <path fill="none" stroke="rgb(179,179,179)" stroke-linejoin="round" d="M 1706,7642 L 1706,7492"/>
 <path fill="none" stroke="rgb(179,179,179)" stroke-linejoin="round" d="M 1821,7642 L 1821,7492"/>
 <path fill="none" stroke="rgb(179,179,179)" stroke-linejoin="round" d="M 1821,7642 L 1821,7492"/>
 <path fill="none" stroke="rgb(179,179,179)" stroke-linejoin="round" d="M 1937,7642 L 1937,7492"/>
 <path fill="none" stroke="rgb(179,179,179)" stroke-linejoin="round" d="M 1937,7642 L 1937,7492"/>
 <path fill="none" stroke="rgb(179,179,179)" stroke-linejoin="round" d="M 2053,7642 L 2053,7492"/>
 <path fill="none" stroke="rgb(179,179,179)" stroke-linejoin="round" d="M 2053,7642 L 2053,7492"/>
 <path fill="none" stroke="rgb(179,179,179)" stroke-linejoin="round" d="M 2169,7642 L 2169,7492"/>
 <path fill="none" stroke="rgb(179,179,179)" stroke-linejoin="round" d="M 2169,7642 L 2169,7492"/>
 <path fill="none" stroke="rgb(179,179,179)" stroke-linejoin="round" d="M 2285,7642 L 2285,7492"/>
 <path fill="none" stroke="rgb(179,179,179)" stroke-linejoin="round" d="M 2285,7642 L 2285,7492"/>
 <path fill="none" stroke="rgb(179,179,179)" stroke-linejoin="round" d="M 2400,7642 L 2400,7492"/>
 <path fill="none" stroke="rgb(179,179,179)" stroke-linejoin="round" d="M 2400,7642 L 2400,7492"/>
 <path fill="none" stroke="rgb(179,179,179)" stroke-linejoin="round" d="M 2516,7642 L 2516,7492"/>
 <path fill="none" stroke="rgb(179,179,179)" stroke-linejoin="round" d="M 2516,7642 L 2516,7492"/>
 <path fill="none" stroke="rgb(179,179,179)" stroke-linejoin="round" d="M 2632,7642 L 2632,7492"/>
 <path fill="none" stroke="rgb(179,179,179)" stroke-linejoin="round" d="M 2632,7642 L 2632,7492"/>
 <path fill="none" stroke="rgb(179,179,179)" stroke-linejoin="round" d="M 2748,7642 L 2748,7492"/>
 <path fill="none" stroke="rgb(179,179,179)" stroke-linejoin="round" d="M 2748,7642 L 2748,7492"/>
 <path fill="none" stroke="rgb(179,179,179)" stroke-linejoin="round" d="M 2864,7642 L 2864,7492"/>
 <path fill="none" stroke="rgb(179,179,179)" stroke-linejoin="round" d="M 2864,7642 L 2864,7492"/>
 <path fill="none" stroke="rgb(179,179,179)" stroke-linejoin="round" d="M 2979,7642 L 2979,7492"/>
 <path fill="none" stroke="rgb(179,179,179)" stroke-linejoin="round" d="M 2979,7642 L 2979,7492"/>
 <path fill="none" stroke="rgb(179,179,179)" stroke-linejoin="round" d="M 3095,7642 L 3095,7492"/>
 <path fill="none" stroke="rgb(179,179,179)" stroke-linejoin="round" d="M 3095,7642 L 3095,7492"/>
 <path fill="none" stroke="rgb(179,179,179)" stroke-linejoin="round" d="M 3211,7642 L 3211,7492"/>
 <path fill="none" stroke="rgb(179,179,179)" stroke-linejoin="round" d="M 3211,7642 L 3211,7492"/>
 <path fill="none" stroke="rgb(179,179,179)" stroke-linejoin="round" d="M 3327,7642 L 3327,7492"/>
 <path fill="none" stroke="rgb(179,179,179)" stroke-linejoin="round" d="M 3327,7642 L 3327,7492"/>
 <path fill="none" stroke="rgb(179,179,179)" stroke-linejoin="round" d="M 3443,7642 L 3443,7492"/>
 <path fill="none" stroke="rgb(179,179,179)" stroke-linejoin="round" d="M 3443,7642 L 3443,7492"/>
 <path fill="none" stroke="rgb(179,179,179)" stroke-linejoin="round" d="M 3559,7642 L 3559,7492"/>
 <path fill="none" stroke="rgb(179,179,179)" stroke-linejoin="round" d="M 3559,7642 L 3559,7492"/>
 <path fill="none" stroke="rgb(179,179,179)" stroke-linejoin="round" d="M 3674,7642 L 3674,7492"/>
 <path fill="none" stroke="rgb(179,179,179)" stroke-linejoin="round" d="M 3674,7642 L 3674,7492"/>
 <path fill="none" stroke="rgb(179,179,179)" stroke-linejoin="round" d="M 3790,7642 L 3790,7492"/>
 <path fill="none" stroke="rgb(179,179,179)" stroke-linejoin="round" d="M 3790,7642 L 3790,7492"/>
 <path fill="none" stroke="rgb(179,179,179)" stroke-linejoin="round" d="M 3906,7642 L 3906,7492"/>
 <path fill="none" stroke="rgb(179,179,179)" stroke-linejoin="round" d="M 3906,7642 L 3906,7492"/>
 <path fill="none" stroke="rgb(179,179,179)" stroke-linejoin="round" d="M 4022,7642 L 4022,7492"/>
 <path fill="none" stroke="rgb(179,179,179)" stroke-linejoin="round" d="M 4022,7642 L 4022,7492"/>
 <path fill="none" stroke="rgb(179,179,179)" stroke-linejoin="round" d="M 4138,7642 L 4138,7492"/>
 <path fill="none" stroke="rgb(179,179,179)" stroke-linejoin="round" d="M 4138,7642 L 4138,7492"/>
 <path fill="none" stroke="rgb(179,179,179)" stroke-linejoin="round" d="M 4253,7642 L 4253,7492"/>
 <path fill="none" stroke="rgb(179,179,179)" stroke-linejoin="round" d="M 4253,7642 L 4253,7492"/>
 <path fill="none" stroke="rgb(179,179,179)" stroke-linejoin="round" d="M 4369,7642 L 4369,7492"/>
 <path fill="none" stroke="rgb(179,179,179)" stroke-linejoin="round" d="M 4369,7642 L 4369,7492"/>
 <path fill="none" stroke="rgb(179,179,179)" stroke-linejoin="round" d="M 4485,7642 L 4485,7492"/>
 <path fill="none" stroke="rgb(179,179,179)" stroke-linejoin="round" d="M 4485,7642 L 4485,7492"/>
 <path fill="none" stroke="rgb(179,179,179)" stroke-linejoin="round" d="M 4601,7642 L 4601,7492"/>
 <path fill="none" stroke="rgb(179,179,179)" stroke-linejoin="round" d="M 4601,7642 L 4601,7492"/>
 <path fill="none" stroke="rgb(179,179,179)" stroke-linejoin="round" d="M 4717,7642 L 4717,7492"/>
 <path fill="none" stroke="rgb(179,179,179)" stroke-linejoin="round" d="M 4717,7642 L 4717,7492"/>
 <path fill="none" stroke="rgb(179,179,179)" stroke-linejoin="round" d="M 4832,7642 L 4832,7492"/>
 <path fill="none" stroke="rgb(179,179,179)" stroke-linejoin="round" d="M 4832,7642 L 4832,7492"/>
 <path fill="none" stroke="rgb(179,179,179)" stroke-linejoin="round" d="M 4948,7642 L 4948,7492"/>
 <path fill="none" stroke="rgb(179,179,179)" stroke-linejoin="round" d="M 4948,7642 L 4948,7492"/>
 <path fill="none" stroke="rgb(179,179,179)" stroke-linejoin="round" d="M 5064,7642 L 5064,7492"/>
 <path fill="none" stroke="rgb(179,179,179)" stroke-linejoin="round" d="M 5064,7642 L 5064,7492"/>
 <path fill="none" stroke="rgb(179,179,179)" stroke-linejoin="round" d="M 5180,7642 L 5180,7492"/>
 <path fill="none" stroke="rgb(179,179,179)" stroke-linejoin="round" d="M 5180,7642 L 5180,7492"/>
 <path fill="none" stroke="rgb(179,179,179)" stroke-linejoin="round" d="M 5296,7642 L 5296,7492"/>
 <path fill="none" stroke="rgb(179,179,179)" stroke-linejoin="round" d="M 5296,7642 L 5296,7492"/>
 <path fill="none" stroke="rgb(179,179,179)" stroke-linejoin="round" d="M 5411,7642 L 5411,7492"/>
 <path fill="none" stroke="rgb(179,179,179)" stroke-linejoin="round" d="M 5411,7642 L 5411,7492"/>
 <path fill="none" stroke="rgb(179,179,179)" stroke-linejoin="round" d="M 5527,7642 L 5527,7492"/>
 <path fill="none" stroke="rgb(179,179,179)" stroke-linejoin="round" d="M 5527,7642 L 5527,7492"/>
 <path fill="none" stroke="rgb(179,179,179)" stroke-linejoin="round" d="M 5643,7642 L 5643,7492"/>
 <path fill="none" stroke="rgb(179,179,179)" stroke-linejoin="round" d="M 5643,7642 L 5643,7492"/>
 <path fill="none" stroke="rgb(179,179,179)" stroke-linejoin="round" d="M 5759,7642 L 5759,7492"/>
 <path fill="none" stroke="rgb(179,179,179)" stroke-linejoin="round" d="M 5759,7642 L 5759,7492"/>
 <path fill="none" stroke="rgb(179,179,179)" stroke-linejoin="round" d="M 5875,7642 L 5875,7492"/>
 <path fill="none" stroke="rgb(179,179,179)" stroke-linejoin="round" d="M 5875,7642 L 5875,7492"/>
 <path fill="none" stroke="rgb(179,179,179)" stroke-linejoin="round" d="M 5991,7642 L 5991,7492"/>
 <path fill="none" stroke="rgb(179,179,179)" stroke-linejoin="round" d="M 5991,7642 L 5991,7492"/>
 <path fill="none" stroke="rgb(179,179,179)" stroke-linejoin="round" d="M 6106,7642 L 6106,7492"/>
 <path fill="none" stroke="rgb(179,179,179)" stroke-linejoin="round" d="M 6106,7642 L 6106,7492"/>
 <path fill="none" stroke="rgb(179,179,179)" stroke-linejoin="round" d="M 6222,7642 L 6222,7492"/>
 <path fill="none" stroke="rgb(179,179,179)" stroke-linejoin="round" d="M 6222,7642 L 6222,7492"/>
 <path fill="none" stroke="rgb(179,179,179)" stroke-linejoin="round" d="M 6338,7642 L 6338,7492"/>
 <path fill="none" stroke="rgb(179,179,179)" stroke-linejoin="round" d="M 6338,7642 L 6338,7492"/>
 <path fill="none" stroke="rgb(179,179,179)" stroke-linejoin="round" d="M 6454,7642 L 6454,7492"/>
 <path fill="none" stroke="rgb(179,179,179)" stroke-linejoin="round" d="M 6454,7642 L 6454,7492"/>
 <path fill="none" stroke="rgb(179,179,179)" stroke-linejoin="round" d="M 6570,7642 L 6570,7492"/>
 <path fill="none" stroke="rgb(179,179,179)" stroke-linejoin="round" d="M 6570,7642 L 6570,7492"/>
 <path fill="none" stroke="rgb(179,179,179)" stroke-linejoin="round" d="M 6685,7642 L 6685,7492"/>
 <path fill="none" stroke="rgb(179,179,179)" stroke-linejoin="round" d="M 6685,7642 L 6685,7492"/>
 <path fill="none" stroke="rgb(179,179,179)" stroke-linejoin="round" d="M 6801,7642 L 6801,7492"/>
 <path fill="none" stroke="rgb(179,179,179)" stroke-linejoin="round" d="M 6801,7642 L 6801,7492"/>
 <path fill="none" stroke="rgb(179,179,179)" stroke-linejoin="round" d="M 6917,7642 L 6917,7492"/>
 <path fill="none" stroke="rgb(179,179,179)" stroke-linejoin="round" d="M 6917,7642 L 6917,7492"/>
 <path fill="none" stroke="rgb(179,179,179)" stroke-linejoin="round" d="M 7033,7642 L 7033,7492"/>
 <path fill="none" stroke="rgb(179,179,179)" stroke-linejoin="round" d="M 7033,7642 L 7033,7492"/>
 <path fill="none" stroke="rgb(179,179,179)" stroke-linejoin="round" d="M 7149,7642 L 7149,7492"/>
 <path fill="none" stroke="rgb(179,179,179)" stroke-linejoin="round" d="M 7149,7642 L 7149,7492"/>
 <path fill="none" stroke="rgb(179,179,179)" stroke-linejoin="round" d="M 7264,7642 L 7264,7492"/>
 <path fill="none" stroke="rgb(179,179,179)" stroke-linejoin="round" d="M 7264,7642 L 7264,7492"/>
 <path fill="none" stroke="rgb(179,179,179)" stroke-linejoin="round" d="M 7380,7642 L 7380,7492"/>
 <path fill="none" stroke="rgb(179,179,179)" stroke-linejoin="round" d="M 7380,7642 L 7380,7492"/>
 <path fill="none" stroke="rgb(179,179,179)" stroke-linejoin="round" d="M 7496,7642 L 7496,7492"/>
 <path fill="none" stroke="rgb(179,179,179)" stroke-linejoin="round" d="M 7496,7642 L 7496,7492"/>
 <path fill="none" stroke="rgb(179,179,179)" stroke-linejoin="round" d="M 7612,7642 L 7612,7492"/>
 <path fill="none" stroke="rgb(179,179,179)" stroke-linejoin="round" d="M 7612,7642 L 7612,7492"/>
 <path fill="none" stroke="rgb(179,179,179)" stroke-linejoin="round" d="M 7728,7642 L 7728,7492"/>
 <path fill="none" stroke="rgb(179,179,179)" stroke-linejoin="round" d="M 7728,7642 L 7728,7492"/>
 <path fill="none" stroke="rgb(179,179,179)" stroke-linejoin="round" d="M 7843,7642 L 7843,7492"/>
 <path fill="none" stroke="rgb(179,179,179)" stroke-linejoin="round" d="M 7843,7642 L 7843,7492"/>
 <path fill="none" stroke="rgb(179,179,179)" stroke-linejoin="round" d="M 7959,7642 L 7959,7492"/>
 <path fill="none" stroke="rgb(179,179,179)" stroke-linejoin="round" d="M 7959,7642 L 7959,7492"/>
 <path fill="none" stroke="rgb(179,179,179)" stroke-linejoin="round" d="M 8074,7642 L 8074,7492"/>
 <path fill="none" stroke="rgb(179,179,179)" stroke-linejoin="round" d="M 8074,7642 L 8074,7492"/>
 <path fill="none" stroke="rgb(179,179,179)" stroke-linejoin="round" d="M 8190,7642 L 8190,7492"/>
 <path fill="none" stroke="rgb(179,179,179)" stroke-linejoin="round" d="M 8190,7642 L 8190,7492"/>
 <path fill="none" stroke="rgb(179,179,179)" stroke-linejoin="round" d="M 8306,7642 L 8306,7492"/>
 <path fill="none" stroke="rgb(179,179,179)" stroke-linejoin="round" d="M 8306,7642 L 8306,7492"/>
 <path fill="none" stroke="rgb(179,179,179)" stroke-linejoin="round" d="M 8422,7642 L 8422,7492"/>
 <path fill="none" stroke="rgb(179,179,179)" stroke-linejoin="round" d="M 8422,7642 L 8422,7492"/>
 <path fill="none" stroke="rgb(179,179,179)" stroke-linejoin="round" d="M 8537,7642 L 8537,7492"/>
 <path fill="none" stroke="rgb(179,179,179)" stroke-linejoin="round" d="M 8537,7642 L 8537,7492"/>
 <path fill="none" stroke="rgb(179,179,179)" stroke-linejoin="round" d="M 8653,7642 L 8653,7492"/>
 <path fill="none" stroke="rgb(179,179,179)" stroke-linejoin="round" d="M 8653,7642 L 8653,7492"/>
 <path fill="none" stroke="rgb(179,179,179)" stroke-linejoin="round" d="M 8769,7642 L 8769,7492"/>
 <path fill="none" stroke="rgb(179,179,179)" stroke-linejoin="round" d="M 8769,7642 L 8769,7492"/>
 <path fill="none" stroke="rgb(179,179,179)" stroke-linejoin="round" d="M 8885,7642 L 8885,7492"/>
 <path fill="none" stroke="rgb(179,179,179)" stroke-linejoin="round" d="M 8885,7642 L 8885,7492"/>
 <path fill="none" stroke="rgb(179,179,179)" stroke-linejoin="round" d="M 9001,7642 L 9001,7492"/>
 <path fill="none" stroke="rgb(179,179,179)" stroke-linejoin="round" d="M 9001,7642 L 9001,7492"/>
 <path fill="none" stroke="rgb(179,179,179)" stroke-linejoin="round" d="M 9116,7642 L 9116,7492"/>
 <path fill="none" stroke="rgb(179,179,179)" stroke-linejoin="round" d="M 9116,7642 L 9116,7492"/>
 <path fill="none" stroke="rgb(179,179,179)" stroke-linejoin="round" d="M 9232,7642 L 9232,7492"/>
 <path fill="none" stroke="rgb(179,179,179)" stroke-linejoin="round" d="M 9232,7642 L 9232,7492"/>
 <path fill="none" stroke="rgb(179,179,179)" stroke-linejoin="round" d="M 9348,7642 L 9348,7492"/>
 <path fill="none" stroke="rgb(179,179,179)" stroke-linejoin="round" d="M 9348,7642 L 9348,7492"/>
 <path fill="none" stroke="rgb(179,179,179)" stroke-linejoin="round" d="M 9464,7642 L 9464,7492"/>
 <path fill="none" stroke="rgb(179,179,179)" stroke-linejoin="round" d="M 9464,7642 L 9464,7492"/>
 <path fill="none" stroke="rgb(179,179,179)" stroke-linejoin="round" d="M 9580,7642 L 9580,7492"/>
 <path fill="none" stroke="rgb(179,179,179)" stroke-linejoin="round" d="M 9580,7642 L 9580,7492"/>
 <path fill="none" stroke="rgb(179,179,179)" stroke-linejoin="round" d="M 9695,7642 L 9695,7492"/>
 <path fill="none" stroke="rgb(179,179,179)" stroke-linejoin="round" d="M 9695,7642 L 9695,7492"/>
 <path fill="none" stroke="rgb(179,179,179)" stroke-linejoin="round" d="M 9811,7642 L 9811,7492"/>
 <path fill="none" stroke="rgb(179,179,179)" stroke-linejoin="round" d="M 9811,7642 L 9811,7492"/>
 <path fill="none" stroke="rgb(179,179,179)" stroke-linejoin="round" d="M 9927,7642 L 9927,7492"/>
 <path fill="none" stroke="rgb(179,179,179)" stroke-linejoin="round" d="M 9927,7642 L 9927,7492"/>
 <path fill="none" stroke="rgb(179,179,179)" stroke-linejoin="round" d="M 10043,7642 L 10043,7492"/>
 <path fill="none" stroke="rgb(179,179,179)" stroke-linejoin="round" d="M 10043,7642 L 10043,7492"/>
 <path fill="none" stroke="rgb(179,179,179)" stroke-linejoin="round" d="M 10159,7642 L 10159,7492"/>
 <path fill="none" stroke="rgb(179,179,179)" stroke-linejoin="round" d="M 10159,7642 L 10159,7492"/>
 <path fill="none" stroke="rgb(179,179,179)" stroke-linejoin="round" d="M 10274,7642 L 10274,7492"/>
 <path fill="none" stroke="rgb(179,179,179)" stroke-linejoin="round" d="M 10274,7642 L 10274,7492"/>
 <path fill="none" stroke="rgb(179,179,179)" stroke-linejoin="round" d="M 10390,7642 L 10390,7492"/>
 <path fill="none" stroke="rgb(179,179,179)" stroke-linejoin="round" d="M 10390,7642 L 10390,7492"/>
 <path fill="none" stroke="rgb(179,179,179)" stroke-linejoin="round" d="M 10506,7642 L 10506,7492"/>
 <path fill="none" stroke="rgb(179,179,179)" stroke-linejoin="round" d="M 10506,7642 L 10506,7492"/>
 <path fill="none" stroke="rgb(179,179,179)" stroke-linejoin="round" d="M 10622,7642 L 10622,7492"/>
 <path fill="none" stroke="rgb(179,179,179)" stroke-linejoin="round" d="M 10622,7642 L 10622,7492"/>
 <path fill="none" stroke="rgb(179,179,179)" stroke-linejoin="round" d="M 10738,7642 L 10738,7492"/>
 <path fill="none" stroke="rgb(179,179,179)" stroke-linejoin="round" d="M 10738,7642 L 10738,7492"/>
 <path fill="none" stroke="rgb(179,179,179)" stroke-linejoin="round" d="M 10854,7642 L 10854,7492"/>
 <path fill="none" stroke="rgb(179,179,179)" stroke-linejoin="round" d="M 10854,7642 L 10854,7492"/>
 <path fill="none" stroke="rgb(179,179,179)" stroke-linejoin="round" d="M 10969,7642 L 10969,7492"/>
 <path fill="none" stroke="rgb(179,179,179)" stroke-linejoin="round" d="M 10969,7642 L 10969,7492"/>
 <path fill="none" stroke="rgb(179,179,179)" stroke-linejoin="round" d="M 11085,7642 L 11085,7492"/>
 <path fill="none" stroke="rgb(179,179,179)" stroke-linejoin="round" d="M 11085,7642 L 11085,7492"/>
 <path fill="none" stroke="rgb(179,179,179)" stroke-linejoin="round" d="M 11201,7642 L 11201,7492"/>
 <path fill="none" stroke="rgb(179,179,179)" stroke-linejoin="round" d="M 11201,7642 L 11201,7492"/>
 <path fill="none" stroke="rgb(179,179,179)" stroke-linejoin="round" d="M 11317,7642 L 11317,7492"/>
 <path fill="none" stroke="rgb(179,179,179)" stroke-linejoin="round" d="M 11317,7642 L 11317,7492"/>
 <path fill="none" stroke="rgb(179,179,179)" stroke-linejoin="round" d="M 11433,7642 L 11433,7492"/>
 <path fill="none" stroke="rgb(179,179,179)" stroke-linejoin="round" d="M 11433,7642 L 11433,7492"/>
 <path fill="none" stroke="rgb(179,179,179)" stroke-linejoin="round" d="M 11548,7642 L 11548,7492"/>
 <path fill="none" stroke="rgb(179,179,179)" stroke-linejoin="round" d="M 11548,7642 L 11548,7492"/>
 <path fill="none" stroke="rgb(179,179,179)" stroke-linejoin="round" d="M 11664,7642 L 11664,7492"/>
 <path fill="none" stroke="rgb(179,179,179)" stroke-linejoin="round" d="M 11664,7642 L 11664,7492"/>
 <path fill="none" stroke="rgb(179,179,179)" stroke-linejoin="round" d="M 11780,7642 L 11780,7492"/>
 <path fill="none" stroke="rgb(179,179,179)" stroke-linejoin="round" d="M 11780,7642 L 11780,7492"/>
 <path fill="none" stroke="rgb(179,179,179)" stroke-linejoin="round" d="M 11896,7642 L 11896,7492"/>
 <path fill="none" stroke="rgb(179,179,179)" stroke-linejoin="round" d="M 11896,7642 L 11896,7492"/>
 <path fill="none" stroke="rgb(179,179,179)" stroke-linejoin="round" d="M 12012,7642 L 12012,7492"/>
 <path fill="none" stroke="rgb(179,179,179)" stroke-linejoin="round" d="M 12012,7642 L 12012,7492"/>
 <path fill="none" stroke="rgb(179,179,179)" stroke-linejoin="round" d="M 12127,7642 L 12127,7492"/>
 <path fill="none" stroke="rgb(179,179,179)" stroke-linejoin="round" d="M 12127,7642 L 12127,7492"/>
 <path fill="none" stroke="rgb(179,179,179)" stroke-linejoin="round" d="M 12243,7642 L 12243,7492"/>
 <path fill="none" stroke="rgb(179,179,179)" stroke-linejoin="round" d="M 12243,7642 L 12243,7492"/>
 <path fill="none" stroke="rgb(179,179,179)" stroke-linejoin="round" d="M 12359,7642 L 12359,7492"/>
 <path fill="none" stroke="rgb(179,179,179)" stroke-linejoin="round" d="M 12359,7642 L 12359,7492"/>
 <path fill="none" stroke="rgb(179,179,179)" stroke-linejoin="round" d="M 12475,7642 L 12475,7492"/>
 <path fill="none" stroke="rgb(179,179,179)" stroke-linejoin="round" d="M 12475,7642 L 12475,7492"/>
 <path fill="none" stroke="rgb(179,179,179)" stroke-linejoin="round" d="M 12591,7642 L 12591,7492"/>
 <path fill="none" stroke="rgb(179,179,179)" stroke-linejoin="round" d="M 12591,7642 L 12591,7492"/>
 <path fill="none" stroke="rgb(179,179,179)" stroke-linejoin="round" d="M 12707,7642 L 12707,7492"/>
 <path fill="none" stroke="rgb(179,179,179)" stroke-linejoin="round" d="M 12707,7642 L 12707,7492"/>
 <path fill="none" stroke="rgb(179,179,179)" stroke-linejoin="round" d="M 1127,7492 L 12707,7492"/>
 <path fill="none" stroke="rgb(179,179,179)" stroke-linejoin="round" d="M 977,7492 L 1127,7492"/>
 <path fill="none" stroke="rgb(179,179,179)" stroke-linejoin="round" d="M 977,7492 L 1127,7492"/>
 <path fill="none" stroke="rgb(179,179,179)" stroke-linejoin="round" d="M 977,6580 L 1127,6580"/>
 <path fill="none" stroke="rgb(179,179,179)" stroke-linejoin="round" d="M 977,6580 L 1127,6580"/>
 <path fill="none" stroke="rgb(179,179,179)" stroke-linejoin="round" d="M 977,5668 L 1127,5668"/>
 <path fill="none" stroke="rgb(179,179,179)" stroke-linejoin="round" d="M 977,5668 L 1127,5668"/>
 <path fill="none" stroke="rgb(179,179,179)" stroke-linejoin="round" d="M 977,4756 L 1127,4756"/>
 <path fill="none" stroke="rgb(179,179,179)" stroke-linejoin="round" d="M 977,4756 L 1127,4756"/>
 <path fill="none" stroke="rgb(179,179,179)" stroke-linejoin="round" d="M 977,3844 L 1127,3844"/>
 <path fill="none" stroke="rgb(179,179,179)" stroke-linejoin="round" d="M 977,3844 L 1127,3844"/>
 <path fill="none" stroke="rgb(179,179,179)" stroke-linejoin="round" d="M 977,2932 L 1127,2932"/>
 <path fill="none" stroke="rgb(179,179,179)" stroke-linejoin="round" d="M 977,2932 L 1127,2932"/>
 <path fill="none" stroke="rgb(179,179,179)" stroke-linejoin="round" d="M 977,2021 L 1127,2021"/>
 <path fill="none" stroke="rgb(179,179,179)" stroke-linejoin="round" d="M 977,2021 L 1127,2021"/>
 <path fill="none" stroke="rgb(179,179,179)" stroke-linejoin="round" d="M 977,1109 L 1127,1109"/>
 <path fill="none" stroke="rgb(179,179,179)" stroke-linejoin="round" d="M 977,1109 L 1127,1109"/>
 <path fill="none" stroke="rgb(179,179,179)" stroke-linejoin="round" d="M 977,198 L 1127,198"/>
 <path fill="none" stroke="rgb(179,179,179)" stroke-linejoin="round" d="M 977,198 L 1127,198"/>
 <path fill="none" stroke="rgb(179,179,179)" stroke-linejoin="round" d="M 1127,7492 L 1127,198"/>
 <path fill="none" stroke="rgb(179,179,179)" stroke-linejoin="round" d="M 12857,7492 L 12707,7492"/>
 <path fill="none" stroke="rgb(179,179,179)" stroke-linejoin="round" d="M 12857,7492 L 12707,7492"/>
 <path fill="none" stroke="rgb(179,179,179)" stroke-linejoin="round" d="M 12857,6276 L 12707,6276"/>
 <path fill="none" stroke="rgb(179,179,179)" stroke-linejoin="round" d="M 12857,6276 L 12707,6276"/>
 <path fill="none" stroke="rgb(179,179,179)" stroke-linejoin="round" d="M 12857,5061 L 12707,5061"/>
 <path fill="none" stroke="rgb(179,179,179)" stroke-linejoin="round" d="M 12857,5061 L 12707,5061"/>
 <path fill="none" stroke="rgb(179,179,179)" stroke-linejoin="round" d="M 12857,3844 L 12707,3844"/>
 <path fill="none" stroke="rgb(179,179,179)" stroke-linejoin="round" d="M 12857,3844 L 12707,3844"/>
 <path fill="none" stroke="rgb(179,179,179)" stroke-linejoin="round" d="M 12857,2629 L 12707,2629"/>
 <path fill="none" stroke="rgb(179,179,179)" stroke-linejoin="round" d="M 12857,2629 L 12707,2629"/>
 <path fill="none" stroke="rgb(179,179,179)" stroke-linejoin="round" d="M 12857,1413 L 12707,1413"/>
 <path fill="none" stroke="rgb(179,179,179)" stroke-linejoin="round" d="M 12857,1413 L 12707,1413"/>
 <path fill="none" stroke="rgb(179,179,179)" stroke-linejoin="round" d="M 12857,198 L 12707,198"/>
 <path fill="none" stroke="rgb(179,179,179)" stroke-linejoin="round" d="M 12857,198 L 12707,198"/>
 <path fill="none" stroke="rgb(179,179,179)" stroke-linejoin="round" d="M 12707,7492 L 12707,198"/>
 <path fill="none" stroke="rgb(0,69,134)" stroke-width="80" stroke-linejoin="round" d="M 1127,6276 L 1242,6276 1358,6276 1474,6276 1590,6276 1706,6276 1821,6276 1937,6276 2053,198 2169,198 2285,198 2400,198 2516,198 2632,198 2748,198 2864,198 2979,198 3095,198 3211,198 3327,198 3443,198 3559,198 3674,198 3790,198 3906,198 4022,198 4138,198 4253,198 4369,198 4485,198 4601,198 4717,198 4832,198 4948,198 5064,198 5180,198 5296,198 5411,198 5527,198 5643,198 5759,198 5875,198 5991,198 6106,198 6222,198 6338,198 6454,198 6570,198 6685,198 6801,198 6917,198 7033,198 7149,198 7264,198 7380,198 7496,198 7612,198 7728,198 7843,198 7959,198 8074,198 8190,198 8306,198 8422,198 8537,198 8653,198 8769,198 8885,198 9001,198 9116,198 9232,198 9348,198 9464,198 9580,198 9695,198 9811,198 9927,198 10043,198 10159,198 10274,198 10390,198 10506,198 10622,198 10738,198 10854,198 10969,198 11085,198 11201,198 11317,198 11433,198 11548,198 11664,198 11780,198 11896,198 12012,198 12127,198 12243,198 12359,198 12475,198 12591,198 12707,198"/>
 <path fill="none" stroke="rgb(255,0,0)" stroke-width="80" stroke-linejoin="round" d="M 1127,2021 L 1242,2021 1358,2021 1474,2021 1590,2021 1706,2021 1821,2021 1937,2021 2053,2021 2169,2249 2285,2476 2400,2705 2516,2932 2632,3160 2748,3383 2864,3602 2979,3812 3095,4009 3211,4189 3327,4349 3443,4486 3559,4598 3674,4682 3790,4735 3906,4758 4022,4751 4138,4714 4253,4645 4369,4548 4485,4422 4601,4273 4717,4099 4832,3904 4948,3693 5064,3466 5180,3229 5296,2983 5411,2732 5527,2480 5643,2231 5759,1986 5875,1749 5991,1524 6106,1312 6222,1117 6338,939 6454,781 6570,646 6685,533 6801,444 6917,378 7033,337 7149,320 7264,327 7380,357 7496,408 7612,480 7728,571 7843,679 7959,802 8074,939 8190,1086 8306,1241 8422,1403 8537,1569 8653,1735 8769,1902 8885,2064 9001,2223 9116,2374 9232,2515 9348,2646 9464,2765 9580,2871 9695,2961 9811,3037 9927,3097 10043,3140 10159,3168 10274,3178 10390,3173 10506,3153 10622,3117 10738,3068 10854,3006 10969,2932 11085,2849 11201,2757 11317,2656 11433,2551 11548,2441 11664,2329 11780,2215 11896,2102 12012,1992 12127,1884 12243,1782 12359,1685 12475,1596 12591,1516 12707,1445"/>
 <text class="TextShape" transform="rotate(-44.9 1079 8098)"><tspan class="TextParagraph" font-family="Liberation Sans, sans-serif" font-size="353px" font-weight="400"><tspan class="TextPosition" x="1079" y="8098"><tspan fill="rgb(0,0,0)" stroke="none">0</tspan></tspan></tspan></text>
 <text class="TextShape" transform="rotate(-44.9 1321 8433)"><tspan class="TextParagraph" font-family="Liberation Sans, sans-serif" font-size="353px" font-weight="400"><tspan class="TextPosition" x="1321" y="8433"><tspan fill="rgb(0,0,0)" stroke="none">1,25</tspan></tspan></tspan></text>
 <text class="TextShape" transform="rotate(-44.9 2032 8301)"><tspan class="TextParagraph" font-family="Liberation Sans, sans-serif" font-size="353px" font-weight="400"><tspan class="TextPosition" x="2032" y="8301"><tspan fill="rgb(0,0,0)" stroke="none">2,5</tspan></tspan></tspan></text>
 <text class="TextShape" transform="rotate(-44.9 2479 8433)"><tspan class="TextParagraph" font-family="Liberation Sans, sans-serif" font-size="353px" font-weight="400"><tspan class="TextPosition" x="2479" y="8433"><tspan fill="rgb(0,0,0)" stroke="none">3,75</tspan></tspan></tspan></text>
 <text class="TextShape" transform="rotate(-44.9 3395 8098)"><tspan class="TextParagraph" font-family="Liberation Sans, sans-serif" font-size="353px" font-weight="400"><tspan class="TextPosition" x="3395" y="8098"><tspan fill="rgb(0,0,0)" stroke="none">5</tspan></tspan></tspan></text>
 <text class="TextShape" transform="rotate(-44.9 3637 8433)"><tspan class="TextParagraph" font-family="Liberation Sans, sans-serif" font-size="353px" font-weight="400"><tspan class="TextPosition" x="3637" y="8433"><tspan fill="rgb(0,0,0)" stroke="none">6,25</tspan></tspan></tspan></text>
 <text class="TextShape" transform="rotate(-44.9 4348 8301)"><tspan class="TextParagraph" font-family="Liberation Sans, sans-serif" font-size="353px" font-weight="400"><tspan class="TextPosition" x="4348" y="8301"><tspan fill="rgb(0,0,0)" stroke="none">7,5</tspan></tspan></tspan></text>
 <text class="TextShape" transform="rotate(-44.9 4795 8433)"><tspan class="TextParagraph" font-family="Liberation Sans, sans-serif" font-size="353px" font-weight="400"><tspan class="TextPosition" x="4795" y="8433"><tspan fill="rgb(0,0,0)" stroke="none">8,75</tspan></tspan></tspan></text>
 <text class="TextShape" transform="rotate(-44.9 5580 8227)"><tspan class="TextParagraph" font-family="Liberation Sans, sans-serif" font-size="353px" font-weight="400"><tspan class="TextPosition" x="5580" y="8227"><tspan fill="rgb(0,0,0)" stroke="none">10</tspan></tspan></tspan></text>
 <text class="TextShape" transform="rotate(-44.9 5822 8564)"><tspan class="TextParagraph" font-family="Liberation Sans, sans-serif" font-size="353px" font-weight="400"><tspan class="TextPosition" x="5822" y="8564"><tspan fill="rgb(0,0,0)" stroke="none">11,25</tspan></tspan></tspan></text>
 <text class="TextShape" transform="rotate(-44.9 6532 8433)"><tspan class="TextParagraph" font-family="Liberation Sans, sans-serif" font-size="353px" font-weight="400"><tspan class="TextPosition" x="6532" y="8433"><tspan fill="rgb(0,0,0)" stroke="none">12,5</tspan></tspan></tspan></text>
 <text class="TextShape" transform="rotate(-44.9 6980 8564)"><tspan class="TextParagraph" font-family="Liberation Sans, sans-serif" font-size="353px" font-weight="400"><tspan class="TextPosition" x="6980" y="8564"><tspan fill="rgb(0,0,0)" stroke="none">13,75</tspan></tspan></tspan></text>
 <text class="TextShape" transform="rotate(-44.9 7896 8227)"><tspan class="TextParagraph" font-family="Liberation Sans, sans-serif" font-size="353px" font-weight="400"><tspan class="TextPosition" x="7896" y="8227"><tspan fill="rgb(0,0,0)" stroke="none">15</tspan></tspan></tspan></text>
 <text class="TextShape" transform="rotate(-44.9 8138 8564)"><tspan class="TextParagraph" font-family="Liberation Sans, sans-serif" font-size="353px" font-weight="400"><tspan class="TextPosition" x="8138" y="8564"><tspan fill="rgb(0,0,0)" stroke="none">16,25</tspan></tspan></tspan></text>
 <text class="TextShape" transform="rotate(-44.9 8848 8433)"><tspan class="TextParagraph" font-family="Liberation Sans, sans-serif" font-size="353px" font-weight="400"><tspan class="TextPosition" x="8848" y="8433"><tspan fill="rgb(0,0,0)" stroke="none">17,5</tspan></tspan></tspan></text>
 <text class="TextShape" transform="rotate(-44.9 9296 8564)"><tspan class="TextParagraph" font-family="Liberation Sans, sans-serif" font-size="353px" font-weight="400"><tspan class="TextPosition" x="9296" y="8564"><tspan fill="rgb(0,0,0)" stroke="none">18,75</tspan></tspan></tspan></text>
 <text class="TextShape" transform="rotate(-44.9 10212 8227)"><tspan class="TextParagraph" font-family="Liberation Sans, sans-serif" font-size="353px" font-weight="400"><tspan class="TextPosition" x="10212" y="8227"><tspan fill="rgb(0,0,0)" stroke="none">20</tspan></tspan></tspan></text>
 <text class="TextShape" transform="rotate(-44.9 10454 8564)"><tspan class="TextParagraph" font-family="Liberation Sans, sans-serif" font-size="353px" font-weight="400"><tspan class="TextPosition" x="10454" y="8564"><tspan fill="rgb(0,0,0)" stroke="none">21,25</tspan></tspan></tspan></text>
 <text class="TextShape" transform="rotate(-44.9 11164 8433)"><tspan class="TextParagraph" font-family="Liberation Sans, sans-serif" font-size="353px" font-weight="400"><tspan class="TextPosition" x="11164" y="8433"><tspan fill="rgb(0,0,0)" stroke="none">22,5</tspan></tspan></tspan></text>
 <text class="TextShape" transform="rotate(-44.9 11611 8564)"><tspan class="TextParagraph" font-family="Liberation Sans, sans-serif" font-size="353px" font-weight="400"><tspan class="TextPosition" x="11611" y="8564"><tspan fill="rgb(0,0,0)" stroke="none">23,75</tspan></tspan></tspan></text>
 <text class="TextShape" transform="rotate(-44.9 12528 8227)"><tspan class="TextParagraph" font-family="Liberation Sans, sans-serif" font-size="353px" font-weight="400"><tspan class="TextPosition" x="12528" y="8227"><tspan fill="rgb(0,0,0)" stroke="none">25</tspan></tspan></tspan></text>
 <text class="TextShape"><tspan class="TextParagraph" font-family="Liberation Sans, sans-serif" font-size="352px" font-weight="400"><tspan class="TextPosition" x="321" y="7613"><tspan fill="rgb(0,0,0)" stroke="none">240</tspan></tspan></tspan></text>
 <text class="TextShape"><tspan class="TextParagraph" font-family="Liberation Sans, sans-serif" font-size="352px" font-weight="400"><tspan class="TextPosition" x="321" y="6701"><tspan fill="rgb(0,0,0)" stroke="none">250</tspan></tspan></tspan></text>
 <text class="TextShape"><tspan class="TextParagraph" font-family="Liberation Sans, sans-serif" font-size="352px" font-weight="400"><tspan class="TextPosition" x="321" y="5789"><tspan fill="rgb(0,0,0)" stroke="none">260</tspan></tspan></tspan></text>
 <text class="TextShape"><tspan class="TextParagraph" font-family="Liberation Sans, sans-serif" font-size="352px" font-weight="400"><tspan class="TextPosition" x="321" y="4877"><tspan fill="rgb(0,0,0)" stroke="none">270</tspan></tspan></tspan></text>
 <text class="TextShape"><tspan class="TextParagraph" font-family="Liberation Sans, sans-serif" font-size="352px" font-weight="400"><tspan class="TextPosition" x="321" y="3965"><tspan fill="rgb(0,0,0)" stroke="none">280</tspan></tspan></tspan></text>
 <text class="TextShape"><tspan class="TextParagraph" font-family="Liberation Sans, sans-serif" font-size="352px" font-weight="400"><tspan class="TextPosition" x="321" y="3053"><tspan fill="rgb(0,0,0)" stroke="none">290</tspan></tspan></tspan></text>
 <text class="TextShape"><tspan class="TextParagraph" font-family="Liberation Sans, sans-serif" font-size="352px" font-weight="400"><tspan class="TextPosition" x="321" y="2141"><tspan fill="rgb(0,0,0)" stroke="none">300</tspan></tspan></tspan></text>
 <text class="TextShape"><tspan class="TextParagraph" font-family="Liberation Sans, sans-serif" font-size="352px" font-weight="400"><tspan class="TextPosition" x="321" y="1229"><tspan fill="rgb(0,0,0)" stroke="none">310</tspan></tspan></tspan></text>
 <text class="TextShape"><tspan class="TextParagraph" font-family="Liberation Sans, sans-serif" font-size="352px" font-weight="400"><tspan class="TextPosition" x="321" y="318"><tspan fill="rgb(0,0,0)" stroke="none">320</tspan></tspan></tspan></text>
 <text class="TextShape"><tspan class="TextParagraph" font-family="Liberation Sans, sans-serif" font-size="352px" font-weight="400"><tspan class="TextPosition" x="12957" y="7613"><tspan fill="rgb(0,0,0)" stroke="none">98</tspan></tspan></tspan></text>
 <text class="TextShape"><tspan class="TextParagraph" font-family="Liberation Sans, sans-serif" font-size="352px" font-weight="400"><tspan class="TextPosition" x="12957" y="6396"><tspan fill="rgb(0,0,0)" stroke="none">100</tspan></tspan></tspan></text>
 <text class="TextShape"><tspan class="TextParagraph" font-family="Liberation Sans, sans-serif" font-size="352px" font-weight="400"><tspan class="TextPosition" x="12957" y="5181"><tspan fill="rgb(0,0,0)" stroke="none">102</tspan></tspan></tspan></text>
 <text class="TextShape"><tspan class="TextParagraph" font-family="Liberation Sans, sans-serif" font-size="352px" font-weight="400"><tspan class="TextPosition" x="12957" y="3965"><tspan fill="rgb(0,0,0)" stroke="none">104</tspan></tspan></tspan></text>
 <text class="TextShape"><tspan class="TextParagraph" font-family="Liberation Sans, sans-serif" font-size="352px" font-weight="400"><tspan class="TextPosition" x="12957" y="2749"><tspan fill="rgb(0,0,0)" stroke="none">106</tspan></tspan></tspan></text>
 <text class="TextShape"><tspan class="TextParagraph" font-family="Liberation Sans, sans-serif" font-size="352px" font-weight="400"><tspan class="TextPosition" x="12957" y="1533"><tspan fill="rgb(0,0,0)" stroke="none">108</tspan></tspan></tspan></text>
 <text class="TextShape"><tspan class="TextParagraph" font-family="Liberation Sans, sans-serif" font-size="352px" font-weight="400"><tspan class="TextPosition" x="12957" y="318"><tspan fill="rgb(0,0,0)" stroke="none">110</tspan></tspan></tspan></text>
 <path fill="none" stroke="rgb(0,69,134)" stroke-width="80" stroke-linejoin="round" d="M 13951,4260 L 14751,4260"/>
 <path fill="none" stroke="rgb(255,0,0)" stroke-width="80" stroke-linejoin="round" d="M 13951,4756 L 14751,4756"/>
 <text class="TextShape"><tspan class="TextParagraph" font-family="Liberation Sans, sans-serif" font-size="352px" font-weight="400"><tspan class="TextPosition" x="14851" y="4379"><tspan fill="rgb(0,0,0)" stroke="none">SHIP</tspan></tspan></tspan></text>
 <text class="TextShape"><tspan class="TextParagraph" font-family="Liberation Sans, sans-serif" font-size="352px" font-weight="400"><tspan class="TextPosition" x="14851" y="4876"><tspan fill="rgb(0,0,0)" stroke="none">INV</tspan></tspan></tspan></text>
</svg>