<?xml version="1.0" encoding="UTF-8"?>
<!DOCTYPE svg PUBLIC "-//W3C//DTD SVG 1.1//EN" "http://www.w3.org/Graphics/SVG/1.1/DTD/svg11.dtd">
<svg width="160mm" height="90mm" viewBox="0 0 16000 9000" version="1.1" xmlns="http://www.w3.org/2000/svg" xmlns:xlink="http://www.w3.org/1999/xlink" stroke-width="28.222" stroke-linejoin="round" xml:space="preserve">
 <path fill="rgb(255,255,255)" stroke="none" d="M 8000,8999 L 0,8999 0,19 15999,19 15999,8999 8000,8999 Z"/>
 <path fill="none" stroke="rgb(179,179,179)" stroke-linejoin="round" d="M 6917,7493 L 1127,7493 1127,199 12707,199 12707,7493 6917,7493 Z"/>
 <path fill="none" stroke="rgb(179,179,179)" stroke-linejoin="round" d="M 12707,7492 L 1127,7492"/>
 <path fill="none" stroke="rgb(179,179,179)" stroke-linejoin="round" d="M 12707,5668 L 1127,5668"/>
 <path fill="none" stroke="rgb(179,179,179)" stroke-linejoin="round" d="M 12707,3844 L 1127,3844"/>
 <path fill="none" stroke="rgb(179,179,179)" stroke-linejoin="round" d="M 12707,2021 L 1127,2021"/>
 <path fill="none" stroke="rgb(179,179,179)" stroke-linejoin="round" d="M 12707,198 L 1127,198"/>
 <path fill="none" stroke="rgb(179,179,179)" stroke-linejoin="round" d="M 1127,7642 L 1127,7492"/>
 <path fill="none" stroke="rgb(179,179,179)" stroke-linejoin="round" d="M 1127,7642 L 1127,7492"/>
 <path fill="none" stroke="rgb(179,179,179)" stroke-linejoin="round" d="M 1242,7642 L 1242,7492"/>
 <path fill="none" stroke="rgb(179,179,179)" stroke-linejoin="round" d="M 1242,7642 L 1242,7492"/>
 <path fill="none" stroke="rgb(179,179,179)" stroke-linejoin="round" d="M 1358,7642 L 1358,7492"/>
 <path fill="none" stroke="rgb(179,179,179)" stroke-linejoin="round" d="M 1358,7642 L 1358,7492"/>
 <path fill="none" stroke="rgb(179,179,179)" stroke-linejoin="round" d="M 1474,7642 L 1474,7492"/>
 <path fill="none" stroke="rgb(179,179,179)" stroke-linejoin="round" d="M 1474,7642 L 1474,7492"/>
 <path fill="none" stroke="rgb(179,179,179)" stroke-linejoin="round" d="M 1590,7642 L 1590,7492"/>
 <path fill="none" stroke="rgb(179,179,179)" stroke-linejoin="round" d="M 1590,7642 L 1590,7492"/>
 <path fill="none" stroke="rgb(179,179,179)" stroke-linejoin="round" d="M 1706,7642 L 1706,7492"/>
 <path fill="none" stroke="rgb(179,179,179)" stroke-linejoin="round" d="M 1706,7642 L 1706,7492"/>
 <path fill="none" stroke="rgb(179,179,179)" stroke-linejoin="round" d="M 1821,7642 L 1821,7492"/>
 <path fill="none" stroke="rgb(179,179,179)" stroke-linejoin="round" d="M 1821,7642 L 1821,7492"/>
 <path fill="none" stroke="rgb(179,179,179)" stroke-linejoin="round" d="M 1937,7642 L 1937,7492"/>
 <path fill="none" stroke="rgb(179,179,179)" stroke-linejoin="round" d="M 1937,7642 L 1937,7492"/>
 <path fill="none" stroke="rgb(179,179,179)" stroke-linejoin="round" d="M 2053,7642 L 2053,7492"/>
 <path fill="none" stroke="rgb(179,179,179)" stroke-linejoin="round" d="M 2053,7642 L 2053,7492"/>
 <path fill="none" stroke="rgb(179,179,179)" stroke-linejoin="round" d="M 2169,7642 L 2169,7492"/>
 <path fill="none" stroke="rgb(179,179,179)" stroke-linejoin="round" d="M 2169,7642 L 2169,7492"/>
 <path fill="none" stroke="rgb(179,179,179)" stroke-linejoin="round" d="M 2285,7642 L 2285,7492"/>
 <path fill="none" stroke="rgb(179,179,179)" stroke-linejoin="round" d="M 2285,7642 L 2285,7492"/>
 <path fill="none" stroke="rgb(179,179,179)" stroke-linejoin="round" d="M 2400,7642 L 2400,7492"/>
 <path fill="none" stroke="rgb(179,179,179)" stroke-linejoin="round" d="M 2400,7642 L 2400,7492"/>
 <path fill="none" stroke="rgb(179,179,179)" stroke-linejoin="round" d="M 2516,7642 L 2516,7492"/>
 <path fill="none" stroke="rgb(179,179,179)" stroke-linejoin="round" d="M 2516,7642 L 2516,7492"/>
 <path fill="none" stroke="rgb(179,179,179)" stroke-linejoin="round" d="M 2632,7642 L 2632,7492"/>
 <path fill="none" stroke="rgb(179,179,179)" stroke-linejoin="round" d="M 2632,7642 L 2632,7492"/>
 <path fill="none" stroke="rgb(179,179,179)" stroke-linejoin="round" d="M 2748,7642 L 2748,7492"/>
 <path fill="none" stroke="rgb(179,179,179)" stroke-linejoin="round" d="M 2748,7642 L 2748,7492"/>
 <path fill="none" stroke="rgb(179,179,179)" stroke-linejoin="round" d="M 2864,7642 L 2864,7492"/>
 <path fill="none" stroke="rgb(179,179,179)" stroke-linejoin="round" d="M 2864,7642 L 2864,7492"/>
 <path fill="none" stroke="rgb(179,179,179)" stroke-linejoin="round" d="M 2979,7642 L 2979,7492"/>
 <path fill="none" stroke="rgb(179,179,179)" stroke-linejoin="round" d="M 2979,7642 L 2979,7492"/>
 <path fill="none" stroke="rgb(179,179,179)" stroke-linejoin="round" d="M 3095,7642 L 3095,7492"/>
 <path fill="none" stroke="rgb(179,179,179)" stroke-linejoin="round" d="M 3095,7642 L 3095,7492"/>
 <path fill="none" stroke="rgb(179,179,179)" stroke-linejoin="round" d="M 3211,7642 L 3211,7492"/>
 <path fill="none" stroke="rgb(179,179,179)" stroke-linejoin="round" d="M 3211,7642 L 3211,7492"/>
 <path fill="none" stroke="rgb(179,179,179)" stroke-linejoin="round" d="M 3327,7642 L 3327,7492"/>
 <path fill="none" stroke="rgb(179,179,179)" stroke-linejoin="round" d="M 3327,7642 L 3327,7492"/>
 <path fill="none" stroke="rgb(179,179,179)" stroke-linejoin="round" d="M 3443,7642 L 3443,7492"/>
 <path fill="none" stroke="rgb(179,179,179)" stroke-linejoin="round" d="M 3443,7642 L 3443,7492"/>
 <path fill="none" stroke="rgb(179,179,179)" stroke-linejoin="round" d="M 3559,7642 L 3559,7492"/>
 <path fill="none" stroke="rgb(179,179,179)" stroke-linejoin="round" d="M 3559,7642 L 3559,7492"/>
 <path fill="none" stroke="rgb(179,179,179)" stroke-linejoin="round" d="M 3674,7642 L 3674,7492"/>
 <path fill="none" stroke="rgb(179,179,179)" stroke-linejoin="round" d="M 3674,7642 L 3674,7492"/>
 <path fill="none" stroke="rgb(179,179,179)" stroke-linejoin="round" d="M 3790,7642 L 3790,7492"/>
 <path fill="none" stroke="rgb(179,179,179)" stroke-linejoin="round" d="M 3790,7642 L 3790,7492"/>
 <path fill="none" stroke="rgb(179,179,179)" stroke-linejoin="round" d="M 3906,7642 L 3906,7492"/>
 <path fill="none" stroke="rgb(179,179,179)" stroke-linejoin="round" d="M 3906,7642 L 3906,7492"/>
 <path fill="none" stroke="rgb(179,179,179)" stroke-linejoin="round" d="M 4022,7642 L 4022,7492"/>
 <path fill="none" stroke="rgb(179,179,179)" stroke-linejoin="round" d="M 4022,7642 L 4022,7492"/>
 <path fill="none" stroke="rgb(179,179,179)" stroke-linejoin="round" d="M 4138,7642 L 4138,7492"/>
 <path fill="none" stroke="rgb(179,179,179)" stroke-linejoin="round" d="M 4138,7642 L 4138,7492"/>
 <path fill="none" stroke="rgb(179,179,179)" stroke-linejoin="round" d="M 4253,7642 L 4253,7492"/>
 <path fill="none" stroke="rgb(179,179,179)" stroke-linejoin="round" d="M 4253,7642 L 4253,7492"/>
 <path fill="none" stroke="rgb(179,179,179)" stroke-linejoin="round" d="M 4369,7642 L 4369,7492"/>
 <path fill="none" stroke="rgb(179,179,179)" stroke-linejoin="round" d="M 4369,7642 L 4369,7492"/>
 <path fill="none" stroke="rgb(179,179,179)" stroke-linejoin="round" d="M 4485,7642 L 4485,7492"/>
 <path fill="none" stroke="rgb(179,179,179)" stroke-linejoin="round" d="M 4485,7642 L 4485,7492"/>
 <path fill="none" stroke="rgb(179,179,179)" stroke-linejoin="round" d="M 4601,7642 L 4601,7492"/>
 <path fill="none" stroke="rgb(179,179,179)" stroke-linejoin="round" d="M 4601,7642 L 4601,7492"/>
 <path fill="none" stroke="rgb(179,179,179)" stroke-linejoin="round" d="M 4717,7642 L 4717,7492"/>
 <path fill="none" stroke="rgb(179,179,179)" stroke-linejoin="round" d="M 4717,7642 L 4717,7492"/>
 <path fill="none" stroke="rgb(179,179,179)" stroke-linejoin="round" d="M 4832,7642 L 4832,7492"/>
 <path fill="none" stroke="rgb(179,179,179)" stroke-linejoin="round" d="M 4832,7642 L 4832,7492"/>
 <path fill="none" stroke="rgb(179,179,179)" stroke-linejoin="round" d="M 4948,7642 L 4948,7492"/>
 <path fill="none" stroke="rgb(179,179,179)" stroke-linejoin="round" d="M 4948,7642 L 4948,7492"/>
 <path fill="none" stroke="rgb(179,179,179)" stroke-linejoin="round" d="M 5064,7642 L 5064,7492"/>
 <path fill="none" stroke="rgb(179,179,179)" stroke-linejoin="round" d="M 5064,7642 L 5064,7492"/>
 <path fill="none" stroke="rgb(179,179,179)" stroke-linejoin="round" d="M 5180,7642 L 5180,7492"/>
 <path fill="none" stroke="rgb(179,179,179)" stroke-linejoin="round" d="M 5180,7642 L 5180,7492"/>
 <path fill="none" stroke="rgb(179,179,179)" stroke-linejoin="round" d="M 5296,7642 L 5296,7492"/>
 <path fill="none" stroke="rgb(179,179,179)" stroke-linejoin="round" d="M 5296,7642 L 5296,7492"/>
 <path fill="none" stroke="rgb(179,179,179)" stroke-linejoin="round" d="M 5411,7642 L 5411,7492"/>
 <path fill="none" stroke="rgb(179,179,179)" stroke-linejoin="round" d="M 5411,7642 L 5411,7492"/>
 <path fill="none" stroke="rgb(179,179,179)" stroke-linejoin="round" d="M 5527,7642 L 5527,7492"/>
 <path fill="none" stroke="rgb(179,179,179)" stroke-linejoin="round" d="M 5527,7642 L 5527,7492"/>
 <path fill="none" stroke="rgb(179,179,179)" stroke-linejoin="round" d="M 5643,7642 L 5643,7492"/>
 <path fill="none" stroke="rgb(179,179,179)" stroke-linejoin="round" d="M 5643,7642 L 5643,7492"/>
 <path fill="none" stroke="rgb(179,179,179)" stroke-linejoin="round" d="M 5759,7642 L 5759,7492"/>
 <path fill="none" stroke="rgb(179,179,179)" stroke-linejoin="round" d="M 5759,7642 L 5759,7492"/>
 <path fill="none" stroke="rgb(179,179,179)" stroke-linejoin="round" d="M 5875,7642 L 5875,7492"/>
 <path fill="none" stroke="rgb(179,179,179)" stroke-linejoin="round" d="M 5875,7642 L 5875,7492"/>
 <path fill="none" stroke="rgb(179,179,179)" stroke-linejoin="round" d="M 5991,7642 L 5991,7492"/>
 <path fill="none" stroke="rgb(179,179,179)" stroke-linejoin="round" d="M 5991,7642 L 5991,7492"/>
 <path fill="none" stroke="rgb(179,179,179)" stroke-linejoin="round" d="M 6106,7642 L 6106,7492"/>
 <path fill="none" stroke="rgb(179,179,179)" stroke-linejoin="round" d="M 6106,7642 L 6106,7492"/>
 <path fill="none" stroke="rgb(179,179,179)" stroke-linejoin="round" d="M 6222,7642 L 6222,7492"/>
 <path fill="none" stroke="rgb(179,179,179)" stroke-linejoin="round" d="M 6222,7642 L 6222,7492"/>
 <path fill="none" stroke="rgb(179,179,179)" stroke-linejoin="round" d="M 6338,7642 L 6338,7492"/>
 <path fill="none" stroke="rgb(179,179,179)" stroke-linejoin="round" d="M 6338,7642 L 6338,7492"/>
 <path fill="none" stroke="rgb(179,179,179)" stroke-linejoin="round" d="M 6454,7642 L 6454,7492"/>
 <path fill="none" stroke="rgb(179,179,179)" stroke-linejoin="round" d="M 6454,7642 L 6454,7492"/>
 <path fill="none" stroke="rgb(179,179,179)" stroke-linejoin="round" d="M 6570,7642 L 6570,7492"/>
 <path fill="none" stroke="rgb(179,179,179)" stroke-linejoin="round" d="M 6570,7642 L 6570,7492"/>
 <path fill="none" stroke="rgb(179,179,179)" stroke-linejoin="round" d="M 6685,7642 L 6685,7492"/>
 <path fill="none" stroke="rgb(179,179,179)" stroke-linejoin="round" d="M 6685,7642 L 6685,7492"/>
 <path fill="none" stroke="rgb(179,179,179)" stroke-linejoin="round" d="M 6801,7642 L 6801,7492"/>
 <path fill="none" stroke="rgb(179,179,179)" stroke-linejoin="round" d="M 6801,7642 L 6801,7492"/>
 <path fill="none" stroke="rgb(179,179,179)" stroke-linejoin="round" d="M 6917,7642 L 6917,7492"/>
 <path fill="none" stroke="rgb(179,179,179)" stroke-linejoin="round" d="M 6917,7642 L 6917,7492"/>
 <path fill="none" stroke="rgb(179,179,179)" stroke-linejoin="round" d="M 7033,7642 L 7033,7492"/>
 <path fill="none" stroke="rgb(179,179,179)" stroke-linejoin="round" d="M 7033,7642 L 7033,7492"/>
 <path fill="none" stroke="rgb(179,179,179)" stroke-linejoin="round" d="M 7149,7642 L 7149,7492"/>
 <path fill="none" stroke="rgb(179,179,179)" stroke-linejoin="round" d="M 7149,7642 L 7149,7492"/>
 <path fill="none" stroke="rgb(179,179,179)" stroke-linejoin="round" d="M 7264,7642 L 7264,7492"/>
 <path fill="none" stroke="rgb(179,179,179)" stroke-linejoin="round" d="M 7264,7642 L 7264,7492"/>
 <path fill="none" stroke="rgb(179,179,179)" stroke-linejoin="round" d="M 7380,7642 L 7380,7492"/>
 <path fill="none" stroke="rgb(179,179,179)" stroke-linejoin="round" d="M 7380,7642 L 7380,7492"/>
 <path fill="none" stroke="rgb(179,179,179)" stroke-linejoin="round" d="M 7496,7642 L 7496,7492"/>
 <path fill="none" stroke="rgb(179,179,179)" stroke-linejoin="round" d="M 7496,7642 L 7496,7492"/>
 <path fill="none" stroke="rgb(179,179,179)" stroke-linejoin="round" d="M 7612,7642 L 7612,7492"/>
 <path fill="none" stroke="rgb(179,179,179)" stroke-linejoin="round" d="M 7612,7642 L 7612,7492"/>
 <path fill="none" stroke="rgb(179,179,179)" stroke-linejoin="round" d="M 7728,7642 L 7728,7492"/>
 <path fill="none" stroke="rgb(179,179,179)" stroke-linejoin="round" d="M 7728,7642 L 7728,7492"/>
 <path fill="none" stroke="rgb(179,179,179)" stroke-linejoin="round" d="M 7843,7642 L 7843,7492"/>
 <path fill="none" stroke="rgb(179,179,179)" stroke-linejoin="round" d="M 7843,7642 L 7843,7492"/>
 <path fill="none" stroke="rgb(179,179,179)" stroke-linejoin="round" d="M 7959,7642 L 7959,7492"/>
 <path fill="none" stroke="rgb(179,179,179)" stroke-linejoin="round" d="M 7959,7642 L 7959,7492"/>
 <path fill="none" stroke="rgb(179,179,179)" stroke-linejoin="round" d="M 8074,7642 L 8074,7492"/>
 <path fill="none" stroke="rgb(179,179,179)" stroke-linejoin="round" d="M 8074,7642 L 8074,7492"/>
 <path fill="none" stroke="rgb(179,179,179)" stroke-linejoin="round" d="M 8190,7642 L 8190,7492"/>
 <path fill="none" stroke="rgb(179,179,179)" stroke-linejoin="round" d="M 8190,7642 L 8190,7492"/>
 <path fill="none" stroke="rgb(179,179,179)" stroke-linejoin="round" d="M 8306,7642 L 8306,7492"/>
 <path fill="none" stroke="rgb(179,179,179)" stroke-linejoin="round" d="M 8306,7642 L 8306,7492"/>
 <path fill="none" stroke="rgb(179,179,179)" stroke-linejoin="round" d="M 8422,7642 L 8422,7492"/>
 <path fill="none" stroke="rgb(179,179,179)" stroke-linejoin="round" d="M 8422,7642 L 8422,7492"/>
 <path fill="none" stroke="rgb(179,179,179)" stroke-linejoin="round" d="M 8537,7642 L 8537,7492"/>
 <path fill="none" stroke="rgb(179,179,179)" stroke-linejoin="round" d="M 8537,7642 L 8537,7492"/>
 <path fill="none" stroke="rgb(179,179,179)" stroke-linejoin="round" d="M 8653,7642 L 8653,7492"/>
 <path fill="none" stroke="rgb(179,179,179)" stroke-linejoin="round" d="M 8653,7642 L 8653,7492"/>
 <path fill="none" stroke="rgb(179,179,179)" stroke-linejoin="round" d="M 8769,7642 L 8769,7492"/>
 <path fill="none" stroke="rgb(179,179,179)" stroke-linejoin="round" d="M 8769,7642 L 8769,7492"/>
 <path fill="none" stroke="rgb(179,179,179)" stroke-linejoin="round" d="M 8885,7642 L 8885,7492"/>
 <path fill="none" stroke="rgb(179,179,179)" stroke-linejoin="round" d="M 8885,7642 L 8885,7492"/>
 <path fill="none" stroke="rgb(179,179,179)" stroke-linejoin="round" d="M 9001,7642 L 9001,7492"/>
 <path fill="none" stroke="rgb(179,179,179)" stroke-linejoin="round" d="M 9001,7642 L 9001,7492"/>
 <path fill="none" stroke="rgb(179,179,179)" stroke-linejoin="round" d="M 9116,7642 L 9116,7492"/>
 <path fill="none" stroke="rgb(179,179,179)" stroke-linejoin="round" d="M 9116,7642 L 9116,7492"/>
 <path fill="none" stroke="rgb(179,179,179)" stroke-linejoin="round" d="M 9232,7642 L 9232,7492"/>
 <path fill="none" stroke="rgb(179,179,179)" stroke-linejoin="round" d="M 9232,7642 L 9232,7492"/>
 <path fill="none" stroke="rgb(179,179,179)" stroke-linejoin="round" d="M 9348,7642 L 9348,7492"/>
 <path fill="none" stroke="rgb(179,179,179)" stroke-linejoin="round" d="M 9348,7642 L 9348,7492"/>
 <path fill="none" stroke="rgb(179,179,179)" stroke-linejoin="round" d="M 9464,7642 L 9464,7492"/>
 <path fill="none" stroke="rgb(179,179,179)" stroke-linejoin="round" d="M 9464,7642 L 9464,7492"/>
 <path fill="none" stroke="rgb(179,179,179)" stroke-linejoin="round" d="M 9580,7642 L 9580,7492"/>
 <path fill="none" stroke="rgb(179,179,179)" stroke-linejoin="round" d="M 9580,7642 L 9580,7492"/>
 <path fill="none" stroke="rgb(179,179,179)" stroke-linejoin="round" d="M 9695,7642 L 9695,7492"/>
 <path fill="none" stroke="rgb(179,179,179)" stroke-linejoin="round" d="M 9695,7642 L 9695,7492"/>
 <path fill="none" stroke="rgb(179,179,179)" stroke-linejoin="round" d="M 9811,7642 L 9811,7492"/>
 <path fill="none" stroke="rgb(179,179,179)" stroke-linejoin="round" d="M 9811,7642 L 9811,7492"/>
 <path fill="none" stroke="rgb(179,179,179)" stroke-linejoin="round" d="M 9927,7642 L 9927,7492"/>
 <path fill="none" stroke="rgb(179,179,179)" stroke-linejoin="round" d="M 9927,7642 L 9927,7492"/>
 <path fill="none" stroke="rgb(179,179,179)" stroke-linejoin="round" d="M 10043,7642 L 10043,7492"/>
 <path fill="none" stroke="rgb(179,179,179)" stroke-linejoin="round" d="M 10043,7642 L 10043,7492"/>
 <path fill="none" stroke="rgb(179,179,179)" stroke-linejoin="round" d="M 10159,7642 L 10159,7492"/>
 <path fill="none" stroke="rgb(179,179,179)" stroke-linejoin="round" d="M 10159,7642 L 10159,7492"/>
 <path fill="none" stroke="rgb(179,179,179)" stroke-linejoin="round" d="M 10274,7642 L 10274,7492"/>
 <path fill="none" stroke="rgb(179,179,179)" stroke-linejoin="round" d="M 10274,7642 L 10274,7492"/>
 <path fill="none" stroke="rgb(179,179,179)" stroke-linejoin="round" d="M 10390,7642 L 10390,7492"/>
 <path fill="none" stroke="rgb(179,179,179)" stroke-linejoin="round" d="M 10390,7642 L 10390,7492"/>
 <path fill="none" stroke="rgb(179,179,179)" stroke-linejoin="round" d="M 10506,7642 L 10506,7492"/>
 <path fill="none" stroke="rgb(179,179,179)" stroke-linejoin="round" d="M 10506,7642 L 10506,7492"/>
 <path fill="none" stroke="rgb(179,179,179)" stroke-linejoin="round" d="M 10622,7642 L 10622,7492"/>
 <path fill="none" stroke="rgb(179,179,179)" stroke-linejoin="round" d="M 10622,7642 L 10622,7492"/>
 <path fill="none" stroke="rgb(179,179,179)" stroke-linejoin="round" d="M 10738,7642 L 10738,7492"/>
 <path fill="none" stroke="rgb(179,179,179)" stroke-linejoin="round" d="M 10738,7642 L 10738,7492"/>
 <path fill="none" stroke="rgb(179,179,179)" stroke-linejoin="round" d="M 10854,7642 L 10854,7492"/>
 <path fill="none" stroke="rgb(179,179,179)" stroke-linejoin="round" d="M 10854,7642 L 10854,7492"/>
 <path fill="none" stroke="rgb(179,179,179)" stroke-linejoin="round" d="M 10969,7642 L 10969,7492"/>
 <path fill="none" stroke="rgb(179,179,179)" stroke-linejoin="round" d="M 10969,7642 L 10969,7492"/>
 <path fill="none" stroke="rgb(179,179,179)" stroke-linejoin="round" d="M 11085,7642 L 11085,7492"/>
 <path fill="none" stroke="rgb(179,179,179)" stroke-linejoin="round" d="M 11085,7642 L 11085,7492"/>
 <path fill="none" stroke="rgb(179,179,179)" stroke-linejoin="round" d="M 11201,7642 L 11201,7492"/>
 <path fill="none" stroke="rgb(179,179,179)" stroke-linejoin="round" d="M 11201,7642 L 11201,7492"/>
 <path fill="none" stroke="rgb(179,179,179)" stroke-linejoin="round" d="M 11317,7642 L 11317,7492"/>
 <path fill="none" stroke="rgb(179,179,179)" stroke-linejoin="round" d="M 11317,7642 L 11317,7492"/>
 <path fill="none" stroke="rgb(179,179,179)" stroke-linejoin="round" d="M 11433,7642 L 11433,7492"/>
 <path fill="none" stroke="rgb(179,179,179)" stroke-linejoin="round" d="M 11433,7642 L 11433,7492"/>
 <path fill="none" stroke="rgb(179,179,179)" stroke-linejoin="round" d="M 11548,7642 L 11548,7492"/>
 <path fill="none" stroke="rgb(179,179,179)" stroke-linejoin="round" d="M 11548,7642 L 11548,7492"/>
 <path fill="none" stroke="rgb(179,179,179)" stroke-linejoin="round" d="M 11664,7642 L 11664,7492"/>
 <path fill="none" stroke="rgb(179,179,179)" stroke-linejoin="round" d="M 11664,7642 L 11664,7492"/>
 <path fill="none" stroke="rgb(179,179,179)" stroke-linejoin="round" d="M 11780,7642 L 11780,7492"/>
 <path fill="none" stroke="rgb(179,179,179)" stroke-linejoin="round" d="M 11780,7642 L 11780,7492"/>
 <path fill="none" stroke="rgb(179,179,179)" stroke-linejoin="round" d="M 11896,7642 L 11896,7492"/>
 <path fill="none" stroke="rgb(179,179,179)" stroke-linejoin="round" d="M 11896,7642 L 11896,7492"/>
 <path fill="none" stroke="rgb(179,179,179)" stroke-linejoin="round" d="M 12012,7642 L 12012,7492"/>
 <path fill="none" stroke="rgb(179,179,179)" stroke-linejoin="round" d="M 12012,7642 L 12012,7492"/>
 <path fill="none" stroke="rgb(179,179,179)" stroke-linejoin="round" d="M 12127,7642 L 12127,7492"/>
 <path fill="none" stroke="rgb(179,179,179)" stroke-linejoin="round" d="M 12127,7642 L 12127,7492"/>
 <path fill="none" stroke="rgb(179,179,179)" stroke-linejoin="round" d="M 12243,7642 L 12243,7492"/>
 <path fill="none" stroke="rgb(179,179,179)" stroke-linejoin="round" d="M 12243,7642 L 12243,7492"/>
 <path fill="none" stroke="rgb(179,179,179)" stroke-linejoin="round" d="M 12359,7642 L 12359,7492"/>
 <path fill="none" stroke="rgb(179,179,179)" stroke-linejoin="round" d="M 12359,7642 L 12359,7492"/>
 <path fill="none" stroke="rgb(179,179,179)" stroke-linejoin="round" d="M 12475,7642 L 12475,7492"/>
 <path fill="none" stroke="rgb(179,179,179)" stroke-linejoin="round" d="M 12475,7642 L 12475,7492"/>
 <path fill="none" stroke="rgb(179,179,179)" stroke-linejoin="round" d="M 12591,7642 L 12591,7492"/>
 <path fill="none" stroke="rgb(179,179,179)" stroke-linejoin="round" d="M 12591,7642 L 12591,7492"/>
 <path fill="none" stroke="rgb(179,179,179)" stroke-linejoin="round" d="M 12707,7642 L 12707,7492"/>
 <path fill="none" stroke="rgb(179,179,179)" stroke-linejoin="round" d="M 12707,7642 L 12707,7492"/>
 <path fill="none" stroke="rgb(179,179,179)" stroke-linejoin="round" d="M 1127,7492 L 12707,7492"/>
 <path fill="none" stroke="rgb(179,179,179)" stroke-linejoin="round" d="M 977,7492 L 1127,7492"/>
 <path fill="none" stroke="rgb(179,179,179)" stroke-linejoin="round" d="M 977,7492 L 1127,7492"/>
 <path fill="none" stroke="rgb(179,179,179)" stroke-linejoin="round" d="M 977,5668 L 1127,5668"/>
 <path fill="none" stroke="rgb(179,179,179)" stroke-linejoin="round" d="M 977,5668 L 1127,5668"/>
 <path fill="none" stroke="rgb(179,179,179)" stroke-linejoin="round" d="M 977,3844 L 1127,3844"/>
 <path fill="none" stroke="rgb(179,179,179)" stroke-linejoin="round" d="M 977,3844 L 1127,3844"/>
 <path fill="none" stroke="rgb(179,179,179)" stroke-linejoin="round" d="M 977,2021 L 1127,2021"/>
 <path fill="none" stroke="rgb(179,179,179)" stroke-linejoin="round" d="M 977,2021 L 1127,2021"/>
 <path fill="none" stroke="rgb(179,179,179)" stroke-linejoin="round" d="M 977,198 L 1127,198"/>
 <path fill="none" stroke="rgb(179,179,179)" stroke-linejoin="round" d="M 977,198 L 1127,198"/>
 <path fill="none" stroke="rgb(179,179,179)" stroke-linejoin="round" d="M 1127,7492 L 1127,198"/>
 <path fill="none" stroke="rgb(179,179,179)" stroke-linejoin="round" d="M 12857,7492 L 12707,7492"/>
 <path fill="none" stroke="rgb(179,179,179)" stroke-linejoin="round" d="M 12857,7492 L 12707,7492"/>
 <path fill="none" stroke="rgb(179,179,179)" stroke-linejoin="round" d="M 12857,6276 L 12707,6276"/>
 <path fill="none" stroke="rgb(179,179,179)" stroke-linejoin="round" d="M 12857,6276 L 12707,6276"/>
 <path fill="none" stroke="rgb(179,179,179)" stroke-linejoin="round" d="M 12857,5061 L 12707,5061"/>
 <path fill="none" stroke="rgb(179,179,179)" stroke-linejoin="round" d="M 12857,5061 L 12707,5061"/>
 <path fill="none" stroke="rgb(179,179,179)" stroke-linejoin="round" d="M 12857,3844 L 12707,3844"/>
 <path fill="none" stroke="rgb(179,179,179)" stroke-linejoin="round" d="M 12857,3844 L 12707,3844"/>
 <path fill="none" stroke="rgb(179,179,179)" stroke-linejoin="round" d="M 12857,2629 L 12707,2629"/>
 <path fill="none" stroke="rgb(179,179,179)" stroke-linejoin="round" d="M 12857,2629 L 12707,2629"/>
 <path fill="none" stroke="rgb(179,179,179)" stroke-linejoin="round" d="M 12857,1413 L 12707,1413"/>
 <path fill="none" stroke="rgb(179,179,179)" stroke-linejoin="round" d="M 12857,1413 L 12707,1413"/>
 <path fill="none" stroke="rgb(179,179,179)" stroke-linejoin="round" d="M 12857,198 L 12707,198"/>
 <path fill="none" stroke="rgb(179,179,179)" stroke-linejoin="round" d="M 12857,198 L 12707,198"/>
 <path fill="none" stroke="rgb(179,179,179)" stroke-linejoin="round" d="M 12707,7492 L 12707,198"/>
 <path fill="none" stroke="rgb(0,69,134)" stroke-width="80" stroke-linejoin="round" d="M 1127,6276 L 1242,6276 1358,6276 1474,6276 1590,6276 1706,6276 1821,6276 1937,6276 2053,198 2169,6276 2285,6276 2400,6276 2516,6276 2632,6276 2748,6276 2864,6276 2979,6276 3095,6276 3211,6276 3327,6276 3443,6276 3559,6276 3674,6276 3790,6276 3906,6276 4022,6276 4138,6276 4253,6276 4369,6276 4485,6276 4601,6276 4717,6276 4832,6276 4948,6276 5064,6276 5180,6276 5296,6276 5411,6276 5527,6276 5643,6276 5759,6276 5875,6276 5991,6276 6106,6276 6222,6276 6338,6276 6454,6276 6570,6276 6685,6276 6801,6276 6917,6276 7033,6276 7149,6276 7264,6276 7380,6276 7496,6276 7612,6276 7728,6276 7843,6276 7959,6276 8074,6276 8190,6276 8306,6276 8422,6276 8537,6276 8653,6276 8769,6276 8885,6276 9001,6276 9116,6276 9232,6276 9348,6276 9464,6276 9580,6276 9695,6276 9811,6276 9927,6276 10043,6276 10159,6276 10274,6276 10390,6276 10506,6276 10622,6276 10738,6276 10854,6276 10969,6276 11085,6276 11201,6276 11317,6276 11433,6276 11548,6276 11664,6276 11780,6276 11896,6276 12012,6276 12127,6276 12243,6276 12359,6276 12475,6276 12591,6276 12707,6276"/>
 <path fill="none" stroke="rgb(255,0,0)" stroke-width="80" stroke-linejoin="round" d="M 1127,2932 L 1242,2932 1358,2932 1474,2932 1590,2932 1706,2932 1821,2932 1937,2932 2053,2932 2169,5212 2285,5212 2400,5212 2516,5212 2632,5203 2748,5174 2864,5119 2979,5028 3095,4899 3211,4734 3327,4535 3443,4304 3559,4046 3674,3768 3790,3472 3906,3168 4022,2859 4138,2551 4253,2249 4369,1959 4485,1684 4601,1429 4717,1197 4832,992 4948,815 5064,669 5180,555 5296,474 5411,427 5527,414 5643,433 5759,485 5875,567 5991,677 6106,815 6222,976 6338,1158 6454,1359 6570,1575 6685,1803 6801,2038 6917,2280 7033,2523 7149,2764 7264,3000 7380,3229 7496,3447 7612,3652 7728,3841 7843,4012 7959,4164 8074,4294 8190,4403 8306,4488 8422,4550 8537,4589 8653,4603 8769,4595 8885,4564 9001,4512 9116,4440 9232,4349 9348,4243 9464,4121 9580,3987 9695,3842 9811,3689 9927,3530 10043,3368 10159,3204 10274,3041 10390,2882 10506,2727 10622,2579 10738,2442 10854,2314 10969,2197 11085,2095 11201,2007 11317,1934 11433,1876 11548,1834 11664,1808 11780,1798 11896,1804 12012,1825 12127,1861 12243,1910 12359,1971 12475,2043 12591,2125 12707,2217"/>
 <text class="TextShape" transform="rotate(-44.9 1079 8098)"><tspan class="TextParagraph" font-family="Liberation Sans, sans-serif" font-size="353px" font-weight="400"><tspan class="TextPosition" x="1079" y="8098"><tspan fill="rgb(0,0,0)" stroke="none">0</tspan></tspan></tspan></text>
 <text class="TextShape" transform="rotate(-44.9 1321 8433)"><tspan class="TextParagraph" font-family="Liberation Sans, sans-serif" font-size="353px" font-weight="400"><tspan class="TextPosition" x="1321" y="8433"><tspan fill="rgb(0,0,0)" stroke="none">1,25</tspan></tspan></tspan></text>
 <text class="TextShape" transform="rotate(-44.9 2032 8301)"><tspan class="TextParagraph" font-family="Liberation Sans, sans-serif" font-size="353px" font-weight="400"><tspan class="TextPosition" x="2032" y="8301"><tspan fill="rgb(0,0,0)" stroke="none">2,5</tspan></tspan></tspan></text>
 <text class="TextShape" transform="rotate(-44.9 2479 8433)"><tspan class="TextParagraph" font-family="Liberation Sans, sans-serif" font-size="353px" font-weight="400"><tspan class="TextPosition" x="2479" y="8433"><tspan fill="rgb(0,0,0)" stroke="none">3,75</tspan></tspan></tspan></text>
 <text class="TextShape" transform="rotate(-44.9 3395 8098)"><tspan class="TextParagraph" font-family="Liberation Sans, sans-serif" font-size="353px" font-weight="400"><tspan class="TextPosition" x="3395" y="8098"><tspan fill="rgb(0,0,0)" stroke="none">5</tspan></tspan></tspan></text>
 <text class="TextShape" transform="rotate(-44.9 3637 8433)"><tspan class="TextParagraph" font-family="Liberation Sans, sans-serif" font-size="353px" font-weight="400"><tspan class="TextPosition" x="3637" y="8433"><tspan fill="rgb(0,0,0)" stroke="none">6,25</tspan></tspan></tspan></text>
 <text class="TextShape" transform="rotate(-44.9 4348 8301)"><tspan class="TextParagraph" font-family="Liberation Sans, sans-serif" font-size="353px" font-weight="400"><tspan class="TextPosition" x="4348" y="8301"><tspan fill="rgb(0,0,0)" stroke="none">7,5</tspan></tspan></tspan></text>
 <text class="TextShape" transform="rotate(-44.9 4795 8433)"><tspan class="TextParagraph" font-family="Liberation Sans, sans-serif" font-size="353px" font-weight="400"><tspan class="TextPosition" x="4795" y="8433"><tspan fill="rgb(0,0,0)" stroke="none">8,75</tspan></tspan></tspan></text>
 <text class="TextShape" transform="rotate(-44.9 5580 8227)"><tspan class="TextParagraph" font-family="Liberation Sans, sans-serif" font-size="353px" font-weight="400"><tspan class="TextPosition" x="5580" y="8227"><tspan fill="rgb(0,0,0)" stroke="none">10</tspan></tspan></tspan></text>
 <text class="TextShape" transform="rotate(-44.9 5822 8564)"><tspan class="TextParagraph" font-family="Liberation Sans, sans-serif" font-size="353px" font-weight="400"><tspan class="TextPosition" x="5822" y="8564"><tspan fill="rgb(0,0,0)" stroke="none">11,25</tspan></tspan></tspan></text>
 <text class="TextShape" transform="rotate(-44.9 6532 8433)"><tspan class="TextParagraph" font-family="Liberation Sans, sans-serif" font-size="353px" font-weight="400"><tspan class="TextPosition" x="6532" y="8433"><tspan fill="rgb(0,0,0)" stroke="none">12,5</tspan></tspan></tspan></text>
 <text class="TextShape" transform="rotate(-44.9 6980 8564)"><tspan class="TextParagraph" font-family="Liberation Sans, sans-serif" font-size="353px" font-weight="400"><tspan class="TextPosition" x="6980" y="8564"><tspan fill="rgb(0,0,0)" stroke="none">13,75</tspan></tspan></tspan></text>
 <text class="TextShape" transform="rotate(-44.9 7896 8227)"><tspan class="TextParagraph" font-family="Liberation Sans, sans-serif" font-size="353px" font-weight="400"><tspan class="TextPosition" x="7896" y="8227"><tspan fill="rgb(0,0,0)" stroke="none">15</tspan></tspan></tspan></text>
 <text class="TextShape" transform="rotate(-44.9 8138 8564)"><tspan class="TextParagraph" font-family="Liberation Sans, sans-serif" font-size="353px" font-weight="400"><tspan class="TextPosition" x="8138" y="8564"><tspan fill="rgb(0,0,0)" stroke="none">16,25</tspan></tspan></tspan></text>
 <text class="TextShape" transform="rotate(-44.9 8848 8433)"><tspan class="TextParagraph" font-family="Liberation Sans, sans-serif" font-size="353px" font-weight="400"><tspan class="TextPosition" x="8848" y="8433"><tspan fill="rgb(0,0,0)" stroke="none">17,5</tspan></tspan></tspan></text>
 <text class="TextShape" transform="rotate(-44.9 9296 8564)"><tspan class="TextParagraph" font-family="Liberation Sans, sans-serif" font-size="353px" font-weight="400"><tspan class="TextPosition" x="9296" y="8564"><tspan fill="rgb(0,0,0)" stroke="none">18,75</tspan></tspan></tspan></text>
 <text class="TextShape" transform="rotate(-44.9 10212 8227)"><tspan class="TextParagraph" font-family="Liberation Sans, sans-serif" font-size="353px" font-weight="400"><tspan class="TextPosition" x="10212" y="8227"><tspan fill="rgb(0,0,0)" stroke="none">20</tspan></tspan></tspan></text>
 <text class="TextShape" transform="rotate(-44.9 10454 8564)"><tspan class="TextParagraph" font-family="Liberation Sans, sans-serif" font-size="353px" font-weight="400"><tspan class="TextPosition" x="10454" y="8564"><tspan fill="rgb(0,0,0)" stroke="none">21,25</tspan></tspan></tspan></text>
 <text class="TextShape" transform="rotate(-44.9 11164 8433)"><tspan class="TextParagraph" font-family="Liberation Sans, sans-serif" font-size="353px" font-weight="400"><tspan class="TextPosition" x="11164" y="8433"><tspan fill="rgb(0,0,0)" stroke="none">22,5</tspan></tspan></tspan></text>
 <text class="TextShape" transform="rotate(-44.9 11611 8564)"><tspan class="TextParagraph" font-family="Liberation Sans, sans-serif" font-size="353px" font-weight="400"><tspan class="TextPosition" x="11611" y="8564"><tspan fill="rgb(0,0,0)" stroke="none">23,75</tspan></tspan></tspan></text>
 <text class="TextShape" transform="rotate(-44.9 12528 8227)"><tspan class="TextParagraph" font-family="Liberation Sans, sans-serif" font-size="353px" font-weight="400"><tspan class="TextPosition" x="12528" y="8227"><tspan fill="rgb(0,0,0)" stroke="none">25</tspan></tspan></tspan></text>
 <text class="TextShape"><tspan class="TextParagraph" font-family="Liberation Sans, sans-serif" font-size="352px" font-weight="400"><tspan class="TextPosition" x="321" y="7613"><tspan fill="rgb(0,0,0)" stroke="none">295</tspan></tspan></tspan></text>
 <text class="TextShape"><tspan class="TextParagraph" font-family="Liberation Sans, sans-serif" font-size="352px" font-weight="400"><tspan class="TextPosition" x="321" y="5789"><tspan fill="rgb(0,0,0)" stroke="none">297</tspan></tspan></tspan></text>
 <text class="TextShape"><tspan class="TextParagraph" font-family="Liberation Sans, sans-serif" font-size="352px" font-weight="400"><tspan class="TextPosition" x="321" y="3965"><tspan fill="rgb(0,0,0)" stroke="none">299</tspan></tspan></tspan></text>
 <text class="TextShape"><tspan class="TextParagraph" font-family="Liberation Sans, sans-serif" font-size="352px" font-weight="400"><tspan class="TextPosition" x="321" y="2141"><tspan fill="rgb(0,0,0)" stroke="none">301</tspan></tspan></tspan></text>
 <text class="TextShape"><tspan class="TextParagraph" font-family="Liberation Sans, sans-serif" font-size="352px" font-weight="400"><tspan class="TextPosition" x="321" y="318"><tspan fill="rgb(0,0,0)" stroke="none">303</tspan></tspan></tspan></text>
 <text class="TextShape"><tspan class="TextParagraph" font-family="Liberation Sans, sans-serif" font-size="352px" font-weight="400"><tspan class="TextPosition" x="12957" y="7613"><tspan fill="rgb(0,0,0)" stroke="none">98</tspan></tspan></tspan></text>
 <text class="TextShape"><tspan class="TextParagraph" font-family="Liberation Sans, sans-serif" font-size="352px" font-weight="400"><tspan class="TextPosition" x="12957" y="6396"><tspan fill="rgb(0,0,0)" stroke="none">100</tspan></tspan></tspan></text>
 <text class="TextShape"><tspan class="TextParagraph" font-family="Liberation Sans, sans-serif" font-size="352px" font-weight="400"><tspan class="TextPosition" x="12957" y="5181"><tspan fill="rgb(0,0,0)" stroke="none">102</tspan></tspan></tspan></text>
 <text class="TextShape"><tspan class="TextParagraph" font-family="Liberation Sans, sans-serif" font-size="352px" font-weight="400"><tspan class="TextPosition" x="12957" y="3965"><tspan fill="rgb(0,0,0)" stroke="none">104</tspan></tspan></tspan></text>
 <text class="TextShape"><tspan class="TextParagraph" font-family="Liberation Sans, sans-serif" font-size="352px" font-weight="400"><tspan class="TextPosition" x="12957" y="2749"><tspan fill="rgb(0,0,0)" stroke="none">106</tspan></tspan></tspan></text>
 <text class="TextShape"><tspan class="TextParagraph" font-family="Liberation Sans, sans-serif" font-size="352px" font-weight="400"><tspan class="TextPosition" x="12957" y="1533"><tspan fill="rgb(0,0,0)" stroke="none">108</tspan></tspan></tspan></text>
 <text class="TextShape"><tspan class="TextParagraph" font-family="Liberation Sans, sans-serif" font-size="352px" font-weight="400"><tspan class="TextPosition" x="12957" y="318"><tspan fill="rgb(0,0,0)" stroke="none">110</tspan></tspan></tspan></text>
 <path fill="none" stroke="rgb(0,69,134)" stroke-width="80" stroke-linejoin="round" d="M 13951,4260 L 14751,4260"/>
 <path fill="none" stroke="rgb(255,0,0)" stroke-width="80" stroke-linejoin="round" d="M 13951,4756 L 14751,4756"/>
 <text class="TextShape"><tspan class="TextParagraph" font-family="Liberation Sans, sans-serif" font-size="352px" font-weight="400"><tspan class="TextPosition" x="14851" y="4379"><tspan fill="rgb(0,0,0)" stroke="none">SHIP</tspan></tspan></tspan></text>
 <text class="TextShape"><tspan class="TextParagraph" font-family="Liberation Sans, sans-serif" font-size="352px" font-weight="400"><tspan class="TextPosition" x="14851" y="4876"><tspan fill="rgb(0,0,0)" stroke="none">INV</tspan></tspan></tspan></text>
</svg>