<?xml version="1.0" encoding="UTF-8"?>
<!DOCTYPE svg PUBLIC "-//W3C//DTD SVG 1.1//EN" "http://www.w3.org/Graphics/SVG/1.1/DTD/svg11.dtd">
<svg width="160mm" height="90mm" viewBox="0 0 16000 9000" version="1.1" xmlns="http://www.w3.org/2000/svg" xmlns:xlink="http://www.w3.org/1999/xlink" stroke-width="28.222" stroke-linejoin="round" xml:space="preserve">
 <path fill="rgb(255,255,255)" stroke="none" d="M 8000,8999 L 0,8999 0,19 15999,19 15999,8999 8000,8999 Z"/>
 <path fill="none" stroke="rgb(179,179,179)" stroke-linejoin="round" d="M 6917,7493 L 1127,7493 1127,199 12707,199 12707,7493 6917,7493 Z"/>
 <path fill="none" stroke="rgb(179,179,179)" stroke-linejoin="round" d="M 12707,7492 L 1127,7492"/>
 <path fill="none" stroke="rgb(179,179,179)" stroke-linejoin="round" d="M 12707,5668 L 1127,5668"/>
 <path fill="none" stroke="rgb(179,179,179)" stroke-linejoin="round" d="M 12707,3844 L 1127,3844"/>
 <path fill="none" stroke="rgb(179,179,179)" stroke-linejoin="round" d="M 12707,2021 L 1127,2021"/>
 <path fill="none" stroke="rgb(179,179,179)" stroke-linejoin="round" d="M 12707,198 L 1127,198"/>
 <path fill="none" stroke="rgb(179,179,179)" stroke-linejoin="round" d="M 1127,7642 L 1127,7492"/>
 <path fill="none" stroke="rgb(179,179,179)" stroke-linejoin="round" d="M 1127,7642 L 1127,7492"/>
 <path fill="none" stroke="rgb(179,179,179)" stroke-linejoin="round" d="M 1242,7642 L 1242,7492"/>
 <path fill="none" stroke="rgb(179,179,179)" stroke-linejoin="round" d="M 1242,7642 L 1242,7492"/>
 <path fill="none" stroke="rgb(179,179,179)" stroke-linejoin="round" d="M 1358,7642 L 1358,7492"/>
 <path fill="none" stroke="rgb(179,179,179)" stroke-linejoin="round" d="M 1358,7642 L 1358,7492"/>
 <path fill="none" stroke="rgb(179,179,179)" stroke-linejoin="round" d="M 1474,7642 L 1474,7492"/>
 <path fill="none" stroke="rgb(179,179,179)" stroke-linejoin="round" d="M 1474,7642 L 1474,7492"/>
 <path fill="none" stroke="rgb(179,179,179)" stroke-linejoin="round" d="M 1590,7642 L 1590,7492"/>
 <path fill="none" stroke="rgb(179,179,179)" stroke-linejoin="round" d="M 1590,7642 L 1590,7492"/>
 <path fill="none" stroke="rgb(179,179,179)" stroke-linejoin="round" d="M 1706,7642 L 1706,7492"/>
 <path fill="none" stroke="rgb(179,179,179)" stroke-linejoin="round" d="M 1706,7642 L 1706,7492"/>
 <path fill="none" stroke="rgb(179,179,179)" stroke-linejoin="round" d="M 1821,7642 L 1821,7492"/>
 <path fill="none" stroke="rgb(179,179,179)" stroke-linejoin="round" d="M 1821,7642 L 1821,7492"/>
 <path fill="none" stroke="rgb(179,179,179)" stroke-linejoin="round" d="M 1937,7642 L 1937,7492"/>
 <path fill="none" stroke="rgb(179,179,179)" stroke-linejoin="round" d="M 1937,7642 L 1937,7492"/>
 <path fill="none" stroke="rgb(179,179,179)" stroke-linejoin="round" d="M 2053,7642 L 2053,7492"/>
 <path fill="none" stroke="rgb(179,179,179)" stroke-linejoin="round" d="M 2053,7642 L 2053,7492"/>
 <path fill="none" stroke="rgb(179,179,179)" stroke-linejoin="round" d="M 2169,7642 L 2169,7492"/>
 <path fill="none" stroke="rgb(179,179,179)" stroke-linejoin="round" d="M 2169,7642 L 2169,7492"/>
 <path fill="none" stroke="rgb(179,179,179)" stroke-linejoin="round" d="M 2285,7642 L 2285,7492"/>
 <path fill="none" stroke="rgb(179,179,179)" stroke-linejoin="round" d="M 2285,7642 L 2285,7492"/>
 <path fill="none" stroke="rgb(179,179,179)" stroke-linejoin="round" d="M 2400,7642 L 2400,7492"/>
 <path fill="none" stroke="rgb(179,179,179)" stroke-linejoin="round" d="M 2400,7642 L 2400,7492"/>
 <path fill="none" stroke="rgb(179,179,179)" stroke-linejoin="round" d="M 2516,7642 L 2516,7492"/>
 <path fill="none" stroke="rgb(179,179,179)" stroke-linejoin="round" d="M 2516,7642 L 2516,7492"/>
 <path fill="none" stroke="rgb(179,179,179)" stroke-linejoin="round" d="M 2632,7642 L 2632,7492"/>
 <path fill="none" stroke="rgb(179,179,179)" stroke-linejoin="round" d="M 2632,7642 L 2632,7492"/>
 <path fill="none" stroke="rgb(179,179,179)" stroke-linejoin="round" d="M 2748,7642 L 2748,7492"/>
 <path fill="none" stroke="rgb(179,179,179)" stroke-linejoin="round" d="M 2748,7642 L 2748,7492"/>
 <path fill="none" stroke="rgb(179,179,179)" stroke-linejoin="round" d="M 2864,7642 L 2864,7492"/>
 <path fill="none" stroke="rgb(179,179,179)" stroke-linejoin="round" d="M 2864,7642 L 2864,7492"/>
 <path fill="none" stroke="rgb(179,179,179)" stroke-linejoin="round" d="M 2979,7642 L 2979,7492"/>
 <path fill="none" stroke="rgb(179,179,179)" stroke-linejoin="round" d="M 2979,7642 L 2979,7492"/>
 <path fill="none" stroke="rgb(179,179,179)" stroke-linejoin="round" d="M 3095,7642 L 3095,7492"/>
 <path fill="none" stroke="rgb(179,179,179)" stroke-linejoin="round" d="M 3095,7642 L 3095,7492"/>
 <path fill="none" stroke="rgb(179,179,179)" stroke-linejoin="round" d="M 3211,7642 L 3211,7492"/>
 <path fill="none" stroke="rgb(179,179,179)" stroke-linejoin="round" d="M 3211,7642 L 3211,7492"/>
 <path fill="none" stroke="rgb(179,179,179)" stroke-linejoin="round" d="M 3327,7642 L 3327,7492"/>
 <path fill="none" stroke="rgb(179,179,179)" stroke-linejoin="round" d="M 3327,7642 L 3327,7492"/>
 <path fill="none" stroke="rgb(179,179,179)" stroke-linejoin="round" d="M 3443,7642 L 3443,7492"/>
 <path fill="none" stroke="rgb(179,179,179)" stroke-linejoin="round" d="M 3443,7642 L 3443,7492"/>
 <path fill="none" stroke="rgb(179,179,179)" stroke-linejoin="round" d="M 3559,7642 L 3559,7492"/>
 <path fill="none" stroke="rgb(179,179,179)" stroke-linejoin="round" d="M 3559,7642 L 3559,7492"/>
 <path fill="none" stroke="rgb(179,179,179)" stroke-linejoin="round" d="M 3674,7642 L 3674,7492"/>
 <path fill="none" stroke="rgb(179,179,179)" stroke-linejoin="round" d="M 3674,7642 L 3674,7492"/>
 <path fill="none" stroke="rgb(179,179,179)" stroke-linejoin="round" d="M 3790,7642 L 3790,7492"/>
 <path fill="none" stroke="rgb(179,179,179)" stroke-linejoin="round" d="M 3790,7642 L 3790,7492"/>
 <path fill="none" stroke="rgb(179,179,179)" stroke-linejoin="round" d="M 3906,7642 L 3906,7492"/>
 <path fill="none" stroke="rgb(179,179,179)" stroke-linejoin="round" d="M 3906,7642 L 3906,7492"/>
 <path fill="none" stroke="rgb(179,179,179)" stroke-linejoin="round" d="M 4022,7642 L 4022,7492"/>
 <path fill="none" stroke="rgb(179,179,179)" stroke-linejoin="round" d="M 4022,7642 L 4022,7492"/>
 <path fill="none" stroke="rgb(179,179,179)" stroke-linejoin="round" d="M 4138,7642 L 4138,7492"/>
 <path fill="none" stroke="rgb(179,179,179)" stroke-linejoin="round" d="M 4138,7642 L 4138,7492"/>
 <path fill="none" stroke="rgb(179,179,179)" stroke-linejoin="round" d="M 4253,7642 L 4253,7492"/>
 <path fill="none" stroke="rgb(179,179,179)" stroke-linejoin="round" d="M 4253,7642 L 4253,7492"/>
 <path fill="none" stroke="rgb(179,179,179)" stroke-linejoin="round" d="M 4369,7642 L 4369,7492"/>
 <path fill="none" stroke="rgb(179,179,179)" stroke-linejoin="round" d="M 4369,7642 L 4369,7492"/>
 <path fill="none" stroke="rgb(179,179,179)" stroke-linejoin="round" d="M 4485,7642 L 4485,7492"/>
 <path fill="none" stroke="rgb(179,179,179)" stroke-linejoin="round" d="M 4485,7642 L 4485,7492"/>
 <path fill="none" stroke="rgb(179,179,179)" stroke-linejoin="round" d="M 4601,7642 L 4601,7492"/>
 <path fill="none" stroke="rgb(179,179,179)" stroke-linejoin="round" d="M 4601,7642 L 4601,7492"/>
 <path fill="none" stroke="rgb(179,179,179)" stroke-linejoin="round" d="M 4717,7642 L 4717,7492"/>
 <path fill="none" stroke="rgb(179,179,179)" stroke-linejoin="round" d="M 4717,7642 L 4717,7492"/>
 <path fill="none" stroke="rgb(179,179,179)" stroke-linejoin="round" d="M 4832,7642 L 4832,7492"/>
 <path fill="none" stroke="rgb(179,179,179)" stroke-linejoin="round" d="M 4832,7642 L 4832,7492"/>
 <path fill="none" stroke="rgb(179,179,179)" stroke-linejoin="round" d="M 4948,7642 L 4948,7492"/>
 <path fill="none" stroke="rgb(179,179,179)" stroke-linejoin="round" d="M 4948,7642 L 4948,7492"/>
 <path fill="none" stroke="rgb(179,179,179)" stroke-linejoin="round" d="M 5064,7642 L 5064,7492"/>
 <path fill="none" stroke="rgb(179,179,179)" stroke-linejoin="round" d="M 5064,7642 L 5064,7492"/>
 <path fill="none" stroke="rgb(179,179,179)" stroke-linejoin="round" d="M 5180,7642 L 5180,7492"/>
 <path fill="none" stroke="rgb(179,179,179)" stroke-linejoin="round" d="M 5180,7642 L 5180,7492"/>
 <path fill="none" stroke="rgb(179,179,179)" stroke-linejoin="round" d="M 5296,7642 L 5296,7492"/>
 <path fill="none" stroke="rgb(179,179,179)" stroke-linejoin="round" d="M 5296,7642 L 5296,7492"/>
 <path fill="none" stroke="rgb(179,179,179)" stroke-linejoin="round" d="M 5411,7642 L 5411,7492"/>
 <path fill="none" stroke="rgb(179,179,179)" stroke-linejoin="round" d="M 5411,7642 L 5411,7492"/>
 <path fill="none" stroke="rgb(179,179,179)" stroke-linejoin="round" d="M 5527,7642 L 5527,7492"/>
 <path fill="none" stroke="rgb(179,179,179)" stroke-linejoin="round" d="M 5527,7642 L 5527,7492"/>
 <path fill="none" stroke="rgb(179,179,179)" stroke-linejoin="round" d="M 5643,7642 L 5643,7492"/>
 <path fill="none" stroke="rgb(179,179,179)" stroke-linejoin="round" d="M 5643,7642 L 5643,7492"/>
 <path fill="none" stroke="rgb(179,179,179)" stroke-linejoin="round" d="M 5759,7642 L 5759,7492"/>
 <path fill="none" stroke="rgb(179,179,179)" stroke-linejoin="round" d="M 5759,7642 L 5759,7492"/>
 <path fill="none" stroke="rgb(179,179,179)" stroke-linejoin="round" d="M 5875,7642 L 5875,7492"/>
 <path fill="none" stroke="rgb(179,179,179)" stroke-linejoin="round" d="M 5875,7642 L 5875,7492"/>
 <path fill="none" stroke="rgb(179,179,179)" stroke-linejoin="round" d="M 5991,7642 L 5991,7492"/>
 <path fill="none" stroke="rgb(179,179,179)" stroke-linejoin="round" d="M 5991,7642 L 5991,7492"/>
 <path fill="none" stroke="rgb(179,179,179)" stroke-linejoin="round" d="M 6106,7642 L 6106,7492"/>
 <path fill="none" stroke="rgb(179,179,179)" stroke-linejoin="round" d="M 6106,7642 L 6106,7492"/>
 <path fill="none" stroke="rgb(179,179,179)" stroke-linejoin="round" d="M 6222,7642 L 6222,7492"/>
 <path fill="none" stroke="rgb(179,179,179)" stroke-linejoin="round" d="M 6222,7642 L 6222,7492"/>
 <path fill="none" stroke="rgb(179,179,179)" stroke-linejoin="round" d="M 6338,7642 L 6338,7492"/>
 <path fill="none" stroke="rgb(179,179,179)" stroke-linejoin="round" d="M 6338,7642 L 6338,7492"/>
 <path fill="none" stroke="rgb(179,179,179)" stroke-linejoin="round" d="M 6454,7642 L 6454,7492"/>
 <path fill="none" stroke="rgb(179,179,179)" stroke-linejoin="round" d="M 6454,7642 L 6454,7492"/>
 <path fill="none" stroke="rgb(179,179,179)" stroke-linejoin="round" d="M 6570,7642 L 6570,7492"/>
 <path fill="none" stroke="rgb(179,179,179)" stroke-linejoin="round" d="M 6570,7642 L 6570,7492"/>
 <path fill="none" stroke="rgb(179,179,179)" stroke-linejoin="round" d="M 6685,7642 L 6685,7492"/>
 <path fill="none" stroke="rgb(179,179,179)" stroke-linejoin="round" d="M 6685,7642 L 6685,7492"/>
 <path fill="none" stroke="rgb(179,179,179)" stroke-linejoin="round" d="M 6801,7642 L 6801,7492"/>
 <path fill="none" stroke="rgb(179,179,179)" stroke-linejoin="round" d="M 6801,7642 L 6801,7492"/>
 <path fill="none" stroke="rgb(179,179,179)" stroke-linejoin="round" d="M 6917,7642 L 6917,7492"/>
 <path fill="none" stroke="rgb(179,179,179)" stroke-linejoin="round" d="M 6917,7642 L 6917,7492"/>
 <path fill="none" stroke="rgb(179,179,179)" stroke-linejoin="round" d="M 7033,7642 L 7033,7492"/>
 <path fill="none" stroke="rgb(179,179,179)" stroke-linejoin="round" d="M 7033,7642 L 7033,7492"/>
 <path fill="none" stroke="rgb(179,179,179)" stroke-linejoin="round" d="M 7149,7642 L 7149,7492"/>
 <path fill="none" stroke="rgb(179,179,179)" stroke-linejoin="round" d="M 7149,7642 L 7149,7492"/>
 <path fill="none" stroke="rgb(179,179,179)" stroke-linejoin="round" d="M 7264,7642 L 7264,7492"/>
 <path fill="none" stroke="rgb(179,179,179)" stroke-linejoin="round" d="M 7264,7642 L 7264,7492"/>
 <path fill="none" stroke="rgb(179,179,179)" stroke-linejoin="round" d="M 7380,7642 L 7380,7492"/>
 <path fill="none" stroke="rgb(179,179,179)" stroke-linejoin="round" d="M 7380,7642 L 7380,7492"/>
 <path fill="none" stroke="rgb(179,179,179)" stroke-linejoin="round" d="M 7496,7642 L 7496,7492"/>
 <path fill="none" stroke="rgb(179,179,179)" stroke-linejoin="round" d="M 7496,7642 L 7496,7492"/>
 <path fill="none" stroke="rgb(179,179,179)" stroke-linejoin="round" d="M 7612,7642 L 7612,7492"/>
 <path fill="none" stroke="rgb(179,179,179)" stroke-linejoin="round" d="M 7612,7642 L 7612,7492"/>
 <path fill="none" stroke="rgb(179,179,179)" stroke-linejoin="round" d="M 7728,7642 L 7728,7492"/>
 <path fill="none" stroke="rgb(179,179,179)" stroke-linejoin="round" d="M 7728,7642 L 7728,7492"/>
 <path fill="none" stroke="rgb(179,179,179)" stroke-linejoin="round" d="M 7843,7642 L 7843,7492"/>
 <path fill="none" stroke="rgb(179,179,179)" stroke-linejoin="round" d="M 7843,7642 L 7843,7492"/>
 <path fill="none" stroke="rgb(179,179,179)" stroke-linejoin="round" d="M 7959,7642 L 7959,7492"/>
 <path fill="none" stroke="rgb(179,179,179)" stroke-linejoin="round" d="M 7959,7642 L 7959,7492"/>
 <path fill="none" stroke="rgb(179,179,179)" stroke-linejoin="round" d="M 8074,7642 L 8074,7492"/>
 <path fill="none" stroke="rgb(179,179,179)" stroke-linejoin="round" d="M 8074,7642 L 8074,7492"/>
 <path fill="none" stroke="rgb(179,179,179)" stroke-linejoin="round" d="M 8190,7642 L 8190,7492"/>
 <path fill="none" stroke="rgb(179,179,179)" stroke-linejoin="round" d="M 8190,7642 L 8190,7492"/>
 <path fill="none" stroke="rgb(179,179,179)" stroke-linejoin="round" d="M 8306,7642 L 8306,7492"/>
 <path fill="none" stroke="rgb(179,179,179)" stroke-linejoin="round" d="M 8306,7642 L 8306,7492"/>
 <path fill="none" stroke="rgb(179,179,179)" stroke-linejoin="round" d="M 8422,7642 L 8422,7492"/>
 <path fill="none" stroke="rgb(179,179,179)" stroke-linejoin="round" d="M 8422,7642 L 8422,7492"/>
 <path fill="none" stroke="rgb(179,179,179)" stroke-linejoin="round" d="M 8537,7642 L 8537,7492"/>
 <path fill="none" stroke="rgb(179,179,179)" stroke-linejoin="round" d="M 8537,7642 L 8537,7492"/>
 <path fill="none" stroke="rgb(179,179,179)" stroke-linejoin="round" d="M 8653,7642 L 8653,7492"/>
 <path fill="none" stroke="rgb(179,179,179)" stroke-linejoin="round" d="M 8653,7642 L 8653,7492"/>
 <path fill="none" stroke="rgb(179,179,179)" stroke-linejoin="round" d="M 8769,7642 L 8769,7492"/>
 <path fill="none" stroke="rgb(179,179,179)" stroke-linejoin="round" d="M 8769,7642 L 8769,7492"/>
 <path fill="none" stroke="rgb(179,179,179)" stroke-linejoin="round" d="M 8885,7642 L 8885,7492"/>
 <path fill="none" stroke="rgb(179,179,179)" stroke-linejoin="round" d="M 8885,7642 L 8885,7492"/>
 <path fill="none" stroke="rgb(179,179,179)" stroke-linejoin="round" d="M 9001,7642 L 9001,7492"/>
 <path fill="none" stroke="rgb(179,179,179)" stroke-linejoin="round" d="M 9001,7642 L 9001,7492"/>
 <path fill="none" stroke="rgb(179,179,179)" stroke-linejoin="round" d="M 9116,7642 L 9116,7492"/>
 <path fill="none" stroke="rgb(179,179,179)" stroke-linejoin="round" d="M 9116,7642 L 9116,7492"/>
 <path fill="none" stroke="rgb(179,179,179)" stroke-linejoin="round" d="M 9232,7642 L 9232,7492"/>
 <path fill="none" stroke="rgb(179,179,179)" stroke-linejoin="round" d="M 9232,7642 L 9232,7492"/>
 <path fill="none" stroke="rgb(179,179,179)" stroke-linejoin="round" d="M 9348,7642 L 9348,7492"/>
 <path fill="none" stroke="rgb(179,179,179)" stroke-linejoin="round" d="M 9348,7642 L 9348,7492"/>
 <path fill="none" stroke="rgb(179,179,179)" stroke-linejoin="round" d="M 9464,7642 L 9464,7492"/>
 <path fill="none" stroke="rgb(179,179,179)" stroke-linejoin="round" d="M 9464,7642 L 9464,7492"/>
 <path fill="none" stroke="rgb(179,179,179)" stroke-linejoin="round" d="M 9580,7642 L 9580,7492"/>
 <path fill="none" stroke="rgb(179,179,179)" stroke-linejoin="round" d="M 9580,7642 L 9580,7492"/>
 <path fill="none" stroke="rgb(179,179,179)" stroke-linejoin="round" d="M 9695,7642 L 9695,7492"/>
 <path fill="none" stroke="rgb(179,179,179)" stroke-linejoin="round" d="M 9695,7642 L 9695,7492"/>
 <path fill="none" stroke="rgb(179,179,179)" stroke-linejoin="round" d="M 9811,7642 L 9811,7492"/>
 <path fill="none" stroke="rgb(179,179,179)" stroke-linejoin="round" d="M 9811,7642 L 9811,7492"/>
 <path fill="none" stroke="rgb(179,179,179)" stroke-linejoin="round" d="M 9927,7642 L 9927,7492"/>
 <path fill="none" stroke="rgb(179,179,179)" stroke-linejoin="round" d="M 9927,7642 L 9927,7492"/>
 <path fill="none" stroke="rgb(179,179,179)" stroke-linejoin="round" d="M 10043,7642 L 10043,7492"/>
 <path fill="none" stroke="rgb(179,179,179)" stroke-linejoin="round" d="M 10043,7642 L 10043,7492"/>
 <path fill="none" stroke="rgb(179,179,179)" stroke-linejoin="round" d="M 10159,7642 L 10159,7492"/>
 <path fill="none" stroke="rgb(179,179,179)" stroke-linejoin="round" d="M 10159,7642 L 10159,7492"/>
 <path fill="none" stroke="rgb(179,179,179)" stroke-linejoin="round" d="M 10274,7642 L 10274,7492"/>
 <path fill="none" stroke="rgb(179,179,179)" stroke-linejoin="round" d="M 10274,7642 L 10274,7492"/>
 <path fill="none" stroke="rgb(179,179,179)" stroke-linejoin="round" d="M 10390,7642 L 10390,7492"/>
 <path fill="none" stroke="rgb(179,179,179)" stroke-linejoin="round" d="M 10390,7642 L 10390,7492"/>
 <path fill="none" stroke="rgb(179,179,179)" stroke-linejoin="round" d="M 10506,7642 L 10506,7492"/>
 <path fill="none" stroke="rgb(179,179,179)" stroke-linejoin="round" d="M 10506,7642 L 10506,7492"/>
 <path fill="none" stroke="rgb(179,179,179)" stroke-linejoin="round" d="M 10622,7642 L 10622,7492"/>
 <path fill="none" stroke="rgb(179,179,179)" stroke-linejoin="round" d="M 10622,7642 L 10622,7492"/>
 <path fill="none" stroke="rgb(179,179,179)" stroke-linejoin="round" d="M 10738,7642 L 10738,7492"/>
 <path fill="none" stroke="rgb(179,179,179)" stroke-linejoin="round" d="M 10738,7642 L 10738,7492"/>
 <path fill="none" stroke="rgb(179,179,179)" stroke-linejoin="round" d="M 10854,7642 L 10854,7492"/>
 <path fill="none" stroke="rgb(179,179,179)" stroke-linejoin="round" d="M 10854,7642 L 10854,7492"/>
 <path fill="none" stroke="rgb(179,179,179)" stroke-linejoin="round" d="M 10969,7642 L 10969,7492"/>
 <path fill="none" stroke="rgb(179,179,179)" stroke-linejoin="round" d="M 10969,7642 L 10969,7492"/>
 <path fill="none" stroke="rgb(179,179,179)" stroke-linejoin="round" d="M 11085,7642 L 11085,7492"/>
 <path fill="none" stroke="rgb(179,179,179)" stroke-linejoin="round" d="M 11085,7642 L 11085,7492"/>
 <path fill="none" stroke="rgb(179,179,179)" stroke-linejoin="round" d="M 11201,7642 L 11201,7492"/>
 <path fill="none" stroke="rgb(179,179,179)" stroke-linejoin="round" d="M 11201,7642 L 11201,7492"/>
 <path fill="none" stroke="rgb(179,179,179)" stroke-linejoin="round" d="M 11317,7642 L 11317,7492"/>
 <path fill="none" stroke="rgb(179,179,179)" stroke-linejoin="round" d="M 11317,7642 L 11317,7492"/>
 <path fill="none" stroke="rgb(179,179,179)" stroke-linejoin="round" d="M 11433,7642 L 11433,7492"/>
 <path fill="none" stroke="rgb(179,179,179)" stroke-linejoin="round" d="M 11433,7642 L 11433,7492"/>
 <path fill="none" stroke="rgb(179,179,179)" stroke-linejoin="round" d="M 11548,7642 L 11548,7492"/>
 <path fill="none" stroke="rgb(179,179,179)" stroke-linejoin="round" d="M 11548,7642 L 11548,7492"/>
 <path fill="none" stroke="rgb(179,179,179)" stroke-linejoin="round" d="M 11664,7642 L 11664,7492"/>
 <path fill="none" stroke="rgb(179,179,179)" stroke-linejoin="round" d="M 11664,7642 L 11664,7492"/>
 <path fill="none" stroke="rgb(179,179,179)" stroke-linejoin="round" d="M 11780,7642 L 11780,7492"/>
 <path fill="none" stroke="rgb(179,179,179)" stroke-linejoin="round" d="M 11780,7642 L 11780,7492"/>
 <path fill="none" stroke="rgb(179,179,179)" stroke-linejoin="round" d="M 11896,7642 L 11896,7492"/>
 <path fill="none" stroke="rgb(179,179,179)" stroke-linejoin="round" d="M 11896,7642 L 11896,7492"/>
 <path fill="none" stroke="rgb(179,179,179)" stroke-linejoin="round" d="M 12012,7642 L 12012,7492"/>
 <path fill="none" stroke="rgb(179,179,179)" stroke-linejoin="round" d="M 12012,7642 L 12012,7492"/>
 <path fill="none" stroke="rgb(179,179,179)" stroke-linejoin="round" d="M 12127,7642 L 12127,7492"/>
 <path fill="none" stroke="rgb(179,179,179)" stroke-linejoin="round" d="M 12127,7642 L 12127,7492"/>
 <path fill="none" stroke="rgb(179,179,179)" stroke-linejoin="round" d="M 12243,7642 L 12243,7492"/>
 <path fill="none" stroke="rgb(179,179,179)" stroke-linejoin="round" d="M 12243,7642 L 12243,7492"/>
 <path fill="none" stroke="rgb(179,179,179)" stroke-linejoin="round" d="M 12359,7642 L 12359,7492"/>
 <path fill="none" stroke="rgb(179,179,179)" stroke-linejoin="round" d="M 12359,7642 L 12359,7492"/>
 <path fill="none" stroke="rgb(179,179,179)" stroke-linejoin="round" d="M 12475,7642 L 12475,7492"/>
 <path fill="none" stroke="rgb(179,179,179)" stroke-linejoin="round" d="M 12475,7642 L 12475,7492"/>
 <path fill="none" stroke="rgb(179,179,179)" stroke-linejoin="round" d="M 12591,7642 L 12591,7492"/>
 <path fill="none" stroke="rgb(179,179,179)" stroke-linejoin="round" d="M 12591,7642 L 12591,7492"/>
 <path fill="none" stroke="rgb(179,179,179)" stroke-linejoin="round" d="M 12707,7642 L 12707,7492"/>
 <path fill="none" stroke="rgb(179,179,179)" stroke-linejoin="round" d="M 12707,7642 L 12707,7492"/>
 <path fill="none" stroke="rgb(179,179,179)" stroke-linejoin="round" d="M 1127,7492 L 12707,7492"/>
 <path fill="none" stroke="rgb(179,179,179)" stroke-linejoin="round" d="M 977,7492 L 1127,7492"/>
 <path fill="none" stroke="rgb(179,179,179)" stroke-linejoin="round" d="M 977,7492 L 1127,7492"/>
 <path fill="none" stroke="rgb(179,179,179)" stroke-linejoin="round" d="M 977,5668 L 1127,5668"/>
 <path fill="none" stroke="rgb(179,179,179)" stroke-linejoin="round" d="M 977,5668 L 1127,5668"/>
 <path fill="none" stroke="rgb(179,179,179)" stroke-linejoin="round" d="M 977,3844 L 1127,3844"/>
 <path fill="none" stroke="rgb(179,179,179)" stroke-linejoin="round" d="M 977,3844 L 1127,3844"/>
 <path fill="none" stroke="rgb(179,179,179)" stroke-linejoin="round" d="M 977,2021 L 1127,2021"/>
 <path fill="none" stroke="rgb(179,179,179)" stroke-linejoin="round" d="M 977,2021 L 1127,2021"/>
 <path fill="none" stroke="rgb(179,179,179)" stroke-linejoin="round" d="M 977,198 L 1127,198"/>
 <path fill="none" stroke="rgb(179,179,179)" stroke-linejoin="round" d="M 977,198 L 1127,198"/>
 <path fill="none" stroke="rgb(179,179,179)" stroke-linejoin="round" d="M 1127,7492 L 1127,198"/>
 <path fill="none" stroke="rgb(179,179,179)" stroke-linejoin="round" d="M 12857,7492 L 12707,7492"/>
 <path fill="none" stroke="rgb(179,179,179)" stroke-linejoin="round" d="M 12857,7492 L 12707,7492"/>
 <path fill="none" stroke="rgb(179,179,179)" stroke-linejoin="round" d="M 12857,5668 L 12707,5668"/>
 <path fill="none" stroke="rgb(179,179,179)" stroke-linejoin="round" d="M 12857,5668 L 12707,5668"/>
 <path fill="none" stroke="rgb(179,179,179)" stroke-linejoin="round" d="M 12857,3844 L 12707,3844"/>
 <path fill="none" stroke="rgb(179,179,179)" stroke-linejoin="round" d="M 12857,3844 L 12707,3844"/>
 <path fill="none" stroke="rgb(179,179,179)" stroke-linejoin="round" d="M 12857,2021 L 12707,2021"/>
 <path fill="none" stroke="rgb(179,179,179)" stroke-linejoin="round" d="M 12857,2021 L 12707,2021"/>
 <path fill="none" stroke="rgb(179,179,179)" stroke-linejoin="round" d="M 12857,198 L 12707,198"/>
 <path fill="none" stroke="rgb(179,179,179)" stroke-linejoin="round" d="M 12857,198 L 12707,198"/>
 <path fill="none" stroke="rgb(179,179,179)" stroke-linejoin="round" d="M 12707,7492 L 12707,198"/>
 <path fill="none" stroke="rgb(0,69,134)" stroke-width="80" stroke-linejoin="round" d="M 1127,3844 L 1242,3285 1358,2779 1474,2377 1590,2115 1706,2021 1821,2102 1937,2353 2053,2746 2169,3246 2285,3804 2400,4364 2516,4876 2632,5287 2748,5561 2864,5667 2979,5599 3095,5360 3211,4976 3327,4482 3443,3927 3559,3364 3674,2847 3790,2427 3906,2143 4022,2024 4138,2080 4253,2307 4369,2681 4485,3169 4601,3721 4717,4285 4832,4807 4948,5236 5064,5531 5180,5662 5296,5619 5411,5404 5527,5039 5643,4559 5759,4009 5875,3443 5991,2918 6106,2479 6222,2174 6338,2030 6454,2060 6570,2264 6685,2619 6801,3093 6917,3639 7033,4205 7149,4736 7264,5181 7380,5498 7496,5654 7612,5636 7728,5445 7843,5100 7959,4634 8074,4091 8190,3524 8306,2989 8422,2536 8537,2209 8653,2040 8769,2045 8885,2224 9001,2559 9116,3018 9232,3557 9348,4124 9464,4664 9580,5124 9695,5461 9811,5642 9927,5649 10043,5483 10159,5159 10274,4707 10390,4173 10506,3606 10622,3062 10738,2595 10854,2247 10969,2054 11085,2033 11201,2188 11317,2502 11433,2945 11548,3476 11664,4042 11780,4589 11896,5064 12012,5421 12127,5626 12243,5659 12359,5518 12475,5214 12591,4778 12707,4253"/>
 <path fill="none" stroke="rgb(255,0,0)" stroke-width="80" stroke-linejoin="round" d="M 1127,2932 L 1242,2932 1358,3072 1474,3339 1590,3706 1706,4138 1821,4594 1937,5026 2053,5391 2169,5647 2285,5762 2400,5714 2516,5497 2632,5117 2748,4593 2864,3961 2979,3263 3095,2546 3211,1864 3327,1260 3443,776 3559,441 3674,269 3790,262 3906,406 4022,675 4138,1032 4253,1433 4369,1833 4485,2188 4601,2462 4717,2625 4832,2666 4948,2582 5064,2387 5180,2105 5296,1774 5411,1435 5527,1130 5643,904 5759,790 5875,813 5991,987 6106,1307 6222,1759 6338,2315 6454,2933 6570,3571 6685,4178 6801,4710 6917,5125 7033,5395 7149,5503 7264,5447 7380,5238 7496,4902 7612,4476 7728,4002 7843,3528 7959,3098 8074,2752 8190,2521 8306,2422 8422,2459 8537,2622 8653,2889 8769,3224 8885,3586 9001,3932 9116,4219 9232,4408 9348,4471 9464,4392 9580,4170 9695,3816 9811,3355 9927,2822 10043,2262 10159,1722 10274,1247 10390,879 10506,647 10622,571 10738,655 10854,890 10969,1252 11085,1707 11201,2213 11317,2723 11433,3189 11548,3572 11664,3838 11780,3968 11896,3954 12012,3804 12127,3537 12243,3188 12359,2796 12475,2405 12591,2061 12707,1803"/>
 <text class="TextShape" transform="rotate(-44.9 1079 8098)"><tspan class="TextParagraph" font-family="Liberation Sans, sans-serif" font-size="353px" font-weight="400"><tspan class="TextPosition" x="1079" y="8098"><tspan fill="rgb(0,0,0)" stroke="none">0</tspan></tspan></tspan></text>
 <text class="TextShape" transform="rotate(-44.9 1321 8433)"><tspan class="TextParagraph" font-family="Liberation Sans, sans-serif" font-size="353px" font-weight="400"><tspan class="TextPosition" x="1321" y="8433"><tspan fill="rgb(0,0,0)" stroke="none">1,25</tspan></tspan></tspan></text>
 <text class="TextShape" transform="rotate(-44.9 2032 8301)"><tspan class="TextParagraph" font-family="Liberation Sans, sans-serif" font-size="353px" font-weight="400"><tspan class="TextPosition" x="2032" y="8301"><tspan fill="rgb(0,0,0)" stroke="none">2,5</tspan></tspan></tspan></text>
 <text class="TextShape" transform="rotate(-44.9 2479 8433)"><tspan class="TextParagraph" font-family="Liberation Sans, sans-serif" font-size="353px" font-weight="400"><tspan class="TextPosition" x="2479" y="8433"><tspan fill="rgb(0,0,0)" stroke="none">3,75</tspan></tspan></tspan></text>
 <text class="TextShape" transform="rotate(-44.9 3395 8098)"><tspan class="TextParagraph" font-family="Liberation Sans, sans-serif" font-size="353px" font-weight="400"><tspan class="TextPosition" x="3395" y="8098"><tspan fill="rgb(0,0,0)" stroke="none">5</tspan></tspan></tspan></text>
 <text class="TextShape" transform="rotate(-44.9 3637 8433)"><tspan class="TextParagraph" font-family="Liberation Sans, sans-serif" font-size="353px" font-weight="400"><tspan class="TextPosition" x="3637" y="8433"><tspan fill="rgb(0,0,0)" stroke="none">6,25</tspan></tspan></tspan></text>
 <text class="TextShape" transform="rotate(-44.9 4348 8301)"><tspan class="TextParagraph" font-family="Liberation Sans, sans-serif" font-size="353px" font-weight="400"><tspan class="TextPosition" x="4348" y="8301"><tspan fill="rgb(0,0,0)" stroke="none">7,5</tspan></tspan></tspan></text>
 <text class="TextShape" transform="rotate(-44.9 4795 8433)"><tspan class="TextParagraph" font-family="Liberation Sans, sans-serif" font-size="353px" font-weight="400"><tspan class="TextPosition" x="4795" y="8433"><tspan fill="rgb(0,0,0)" stroke="none">8,75</tspan></tspan></tspan></text>
 <text class="TextShape" transform="rotate(-44.9 5580 8227)"><tspan class="TextParagraph" font-family="Liberation Sans, sans-serif" font-size="353px" font-weight="400"><tspan class="TextPosition" x="5580" y="8227"><tspan fill="rgb(0,0,0)" stroke="none">10</tspan></tspan></tspan></text>
 <text class="TextShape" transform="rotate(-44.9 5822 8564)"><tspan class="TextParagraph" font-family="Liberation Sans, sans-serif" font-size="353px" font-weight="400"><tspan class="TextPosition" x="5822" y="8564"><tspan fill="rgb(0,0,0)" stroke="none">11,25</tspan></tspan></tspan></text>
 <text class="TextShape" transform="rotate(-44.9 6532 8433)"><tspan class="TextParagraph" font-family="Liberation Sans, sans-serif" font-size="353px" font-weight="400"><tspan class="TextPosition" x="6532" y="8433"><tspan fill="rgb(0,0,0)" stroke="none">12,5</tspan></tspan></tspan></text>
 <text class="TextShape" transform="rotate(-44.9 6980 8564)"><tspan class="TextParagraph" font-family="Liberation Sans, sans-serif" font-size="353px" font-weight="400"><tspan class="TextPosition" x="6980" y="8564"><tspan fill="rgb(0,0,0)" stroke="none">13,75</tspan></tspan></tspan></text>
 <text class="TextShape" transform="rotate(-44.9 7896 8227)"><tspan class="TextParagraph" font-family="Liberation Sans, sans-serif" font-size="353px" font-weight="400"><tspan class="TextPosition" x="7896" y="8227"><tspan fill="rgb(0,0,0)" stroke="none">15</tspan></tspan></tspan></text>
 <text class="TextShape" transform="rotate(-44.9 8138 8564)"><tspan class="TextParagraph" font-family="Liberation Sans, sans-serif" font-size="353px" font-weight="400"><tspan class="TextPosition" x="8138" y="8564"><tspan fill="rgb(0,0,0)" stroke="none">16,25</tspan></tspan></tspan></text>
 <text class="TextShape" transform="rotate(-44.9 8848 8433)"><tspan class="TextParagraph" font-family="Liberation Sans, sans-serif" font-size="353px" font-weight="400"><tspan class="TextPosition" x="8848" y="8433"><tspan fill="rgb(0,0,0)" stroke="none">17,5</tspan></tspan></tspan></text>
 <text class="TextShape" transform="rotate(-44.9 9296 8564)"><tspan class="TextParagraph" font-family="Liberation Sans, sans-serif" font-size="353px" font-weight="400"><tspan class="TextPosition" x="9296" y="8564"><tspan fill="rgb(0,0,0)" stroke="none">18,75</tspan></tspan></tspan></text>
 <text class="TextShape" transform="rotate(-44.9 10212 8227)"><tspan class="TextParagraph" font-family="Liberation Sans, sans-serif" font-size="353px" font-weight="400"><tspan class="TextPosition" x="10212" y="8227"><tspan fill="rgb(0,0,0)" stroke="none">20</tspan></tspan></tspan></text>
 <text class="TextShape" transform="rotate(-44.9 10454 8564)"><tspan class="TextParagraph" font-family="Liberation Sans, sans-serif" font-size="353px" font-weight="400"><tspan class="TextPosition" x="10454" y="8564"><tspan fill="rgb(0,0,0)" stroke="none">21,25</tspan></tspan></tspan></text>
 <text class="TextShape" transform="rotate(-44.9 11164 8433)"><tspan class="TextParagraph" font-family="Liberation Sans, sans-serif" font-size="353px" font-weight="400"><tspan class="TextPosition" x="11164" y="8433"><tspan fill="rgb(0,0,0)" stroke="none">22,5</tspan></tspan></tspan></text>
 <text class="TextShape" transform="rotate(-44.9 11611 8564)"><tspan class="TextParagraph" font-family="Liberation Sans, sans-serif" font-size="353px" font-weight="400"><tspan class="TextPosition" x="11611" y="8564"><tspan fill="rgb(0,0,0)" stroke="none">23,75</tspan></tspan></tspan></text>
 <text class="TextShape" transform="rotate(-44.9 12528 8227)"><tspan class="TextParagraph" font-family="Liberation Sans, sans-serif" font-size="353px" font-weight="400"><tspan class="TextPosition" x="12528" y="8227"><tspan fill="rgb(0,0,0)" stroke="none">25</tspan></tspan></tspan></text>
 <text class="TextShape"><tspan class="TextParagraph" font-family="Liberation Sans, sans-serif" font-size="352px" font-weight="400"><tspan class="TextPosition" x="321" y="7613"><tspan fill="rgb(0,0,0)" stroke="none">275</tspan></tspan></tspan></text>
 <text class="TextShape"><tspan class="TextParagraph" font-family="Liberation Sans, sans-serif" font-size="352px" font-weight="400"><tspan class="TextPosition" x="321" y="5789"><tspan fill="rgb(0,0,0)" stroke="none">285</tspan></tspan></tspan></text>
 <text class="TextShape"><tspan class="TextParagraph" font-family="Liberation Sans, sans-serif" font-size="352px" font-weight="400"><tspan class="TextPosition" x="321" y="3965"><tspan fill="rgb(0,0,0)" stroke="none">295</tspan></tspan></tspan></text>
 <text class="TextShape"><tspan class="TextParagraph" font-family="Liberation Sans, sans-serif" font-size="352px" font-weight="400"><tspan class="TextPosition" x="321" y="2141"><tspan fill="rgb(0,0,0)" stroke="none">305</tspan></tspan></tspan></text>
 <text class="TextShape"><tspan class="TextParagraph" font-family="Liberation Sans, sans-serif" font-size="352px" font-weight="400"><tspan class="TextPosition" x="321" y="318"><tspan fill="rgb(0,0,0)" stroke="none">315</tspan></tspan></tspan></text>
 <text class="TextShape"><tspan class="TextParagraph" font-family="Liberation Sans, sans-serif" font-size="352px" font-weight="400"><tspan class="TextPosition" x="12957" y="7613"><tspan fill="rgb(0,0,0)" stroke="none">80</tspan></tspan></tspan></text>
 <text class="TextShape"><tspan class="TextParagraph" font-family="Liberation Sans, sans-serif" font-size="352px" font-weight="400"><tspan class="TextPosition" x="12957" y="5789"><tspan fill="rgb(0,0,0)" stroke="none">90</tspan></tspan></tspan></text>
 <text class="TextShape"><tspan class="TextParagraph" font-family="Liberation Sans, sans-serif" font-size="352px" font-weight="400"><tspan class="TextPosition" x="12957" y="3965"><tspan fill="rgb(0,0,0)" stroke="none">100</tspan></tspan></tspan></text>
 <text class="TextShape"><tspan class="TextParagraph" font-family="Liberation Sans, sans-serif" font-size="352px" font-weight="400"><tspan class="TextPosition" x="12957" y="2141"><tspan fill="rgb(0,0,0)" stroke="none">110</tspan></tspan></tspan></text>
 <text class="TextShape"><tspan class="TextParagraph" font-family="Liberation Sans, sans-serif" font-size="352px" font-weight="400"><tspan class="TextPosition" x="12957" y="318"><tspan fill="rgb(0,0,0)" stroke="none">120</tspan></tspan></tspan></text>
 <path fill="none" stroke="rgb(0,69,134)" stroke-width="80" stroke-linejoin="round" d="M 13951,4260 L 14751,4260"/>
 <path fill="none" stroke="rgb(255,0,0)" stroke-width="80" stroke-linejoin="round" d="M 13951,4756 L 14751,4756"/>
 <text class="TextShape"><tspan class="TextParagraph" font-family="Liberation Sans, sans-serif" font-size="352px" font-weight="400"><tspan class="TextPosition" x="14851" y="4379"><tspan fill="rgb(0,0,0)" stroke="none">SHIP</tspan></tspan></tspan></text>
 <text class="TextShape"><tspan class="TextParagraph" font-family="Liberation Sans, sans-serif" font-size="352px" font-weight="400"><tspan class="TextPosition" x="14851" y="4876"><tspan fill="rgb(0,0,0)" stroke="none">INV</tspan></tspan></tspan></text>
</svg>