<?xml version="1.0" encoding="UTF-8"?>
<!DOCTYPE svg PUBLIC "-//W3C//DTD SVG 1.1//EN" "http://www.w3.org/Graphics/SVG/1.1/DTD/svg11.dtd">
<svg width="160mm" height="90mm" viewBox="0 0 16000 9000" version="1.1" xmlns="http://www.w3.org/2000/svg" xmlns:xlink="http://www.w3.org/1999/xlink" stroke-width="28.222" stroke-linejoin="round" xml:space="preserve">
 <path fill="rgb(255,255,255)" stroke="none" d="M 8000,8999 L 0,8999 0,19 15999,19 15999,8999 8000,8999 Z"/>
 <path fill="none" stroke="rgb(179,179,179)" stroke-linejoin="round" d="M 6917,7493 L 1127,7493 1127,199 12707,199 12707,7493 6917,7493 Z"/>
 <path fill="none" stroke="rgb(179,179,179)" stroke-linejoin="round" d="M 12707,7492 L 1127,7492"/>
 <path fill="none" stroke="rgb(179,179,179)" stroke-linejoin="round" d="M 12707,5668 L 1127,5668"/>
 <path fill="none" stroke="rgb(179,179,179)" stroke-linejoin="round" d="M 12707,3844 L 1127,3844"/>
 <path fill="none" stroke="rgb(179,179,179)" stroke-linejoin="round" d="M 12707,2021 L 1127,2021"/>
 <path fill="none" stroke="rgb(179,179,179)" stroke-linejoin="round" d="M 12707,198 L 1127,198"/>
 <path fill="none" stroke="rgb(179,179,179)" stroke-linejoin="round" d="M 1127,7642 L 1127,7492"/>
 <path fill="none" stroke="rgb(179,179,179)" stroke-linejoin="round" d="M 1127,7642 L 1127,7492"/>
 <path fill="none" stroke="rgb(179,179,179)" stroke-linejoin="round" d="M 1242,7642 L 1242,7492"/>
 <path fill="none" stroke="rgb(179,179,179)" stroke-linejoin="round" d="M 1242,7642 L 1242,7492"/>
 <path fill="none" stroke="rgb(179,179,179)" stroke-linejoin="round" d="M 1358,7642 L 1358,7492"/>
 <path fill="none" stroke="rgb(179,179,179)" stroke-linejoin="round" d="M 1358,7642 L 1358,7492"/>
 <path fill="none" stroke="rgb(179,179,179)" stroke-linejoin="round" d="M 1474,7642 L 1474,7492"/>
 <path fill="none" stroke="rgb(179,179,179)" stroke-linejoin="round" d="M 1474,7642 L 1474,7492"/>
 <path fill="none" stroke="rgb(179,179,179)" stroke-linejoin="round" d="M 1590,7642 L 1590,7492"/>
 <path fill="none" stroke="rgb(179,179,179)" stroke-linejoin="round" d="M 1590,7642 L 1590,7492"/>
 <path fill="none" stroke="rgb(179,179,179)" stroke-linejoin="round" d="M 1706,7642 L 1706,7492"/>
 <path fill="none" stroke="rgb(179,179,179)" stroke-linejoin="round" d="M 1706,7642 L 1706,7492"/>
 <path fill="none" stroke="rgb(179,179,179)" stroke-linejoin="round" d="M 1821,7642 L 1821,7492"/>
 <path fill="none" stroke="rgb(179,179,179)" stroke-linejoin="round" d="M 1821,7642 L 1821,7492"/>
 <path fill="none" stroke="rgb(179,179,179)" stroke-linejoin="round" d="M 1937,7642 L 1937,7492"/>
 <path fill="none" stroke="rgb(179,179,179)" stroke-linejoin="round" d="M 1937,7642 L 1937,7492"/>
 <path fill="none" stroke="rgb(179,179,179)" stroke-linejoin="round" d="M 2053,7642 L 2053,7492"/>
 <path fill="none" stroke="rgb(179,179,179)" stroke-linejoin="round" d="M 2053,7642 L 2053,7492"/>
 <path fill="none" stroke="rgb(179,179,179)" stroke-linejoin="round" d="M 2169,7642 L 2169,7492"/>
 <path fill="none" stroke="rgb(179,179,179)" stroke-linejoin="round" d="M 2169,7642 L 2169,7492"/>
 <path fill="none" stroke="rgb(179,179,179)" stroke-linejoin="round" d="M 2285,7642 L 2285,7492"/>
 <path fill="none" stroke="rgb(179,179,179)" stroke-linejoin="round" d="M 2285,7642 L 2285,7492"/>
 <path fill="none" stroke="rgb(179,179,179)" stroke-linejoin="round" d="M 2400,7642 L 2400,7492"/>
 <path fill="none" stroke="rgb(179,179,179)" stroke-linejoin="round" d="M 2400,7642 L 2400,7492"/>
 <path fill="none" stroke="rgb(179,179,179)" stroke-linejoin="round" d="M 2516,7642 L 2516,7492"/>
 <path fill="none" stroke="rgb(179,179,179)" stroke-linejoin="round" d="M 2516,7642 L 2516,7492"/>
 <path fill="none" stroke="rgb(179,179,179)" stroke-linejoin="round" d="M 2632,7642 L 2632,7492"/>
 <path fill="none" stroke="rgb(179,179,179)" stroke-linejoin="round" d="M 2632,7642 L 2632,7492"/>
 <path fill="none" stroke="rgb(179,179,179)" stroke-linejoin="round" d="M 2748,7642 L 2748,7492"/>
 <path fill="none" stroke="rgb(179,179,179)" stroke-linejoin="round" d="M 2748,7642 L 2748,7492"/>
 <path fill="none" stroke="rgb(179,179,179)" stroke-linejoin="round" d="M 2864,7642 L 2864,7492"/>
 <path fill="none" stroke="rgb(179,179,179)" stroke-linejoin="round" d="M 2864,7642 L 2864,7492"/>
 <path fill="none" stroke="rgb(179,179,179)" stroke-linejoin="round" d="M 2979,7642 L 2979,7492"/>
 <path fill="none" stroke="rgb(179,179,179)" stroke-linejoin="round" d="M 2979,7642 L 2979,7492"/>
 <path fill="none" stroke="rgb(179,179,179)" stroke-linejoin="round" d="M 3095,7642 L 3095,7492"/>
 <path fill="none" stroke="rgb(179,179,179)" stroke-linejoin="round" d="M 3095,7642 L 3095,7492"/>
 <path fill="none" stroke="rgb(179,179,179)" stroke-linejoin="round" d="M 3211,7642 L 3211,7492"/>
 <path fill="none" stroke="rgb(179,179,179)" stroke-linejoin="round" d="M 3211,7642 L 3211,7492"/>
 <path fill="none" stroke="rgb(179,179,179)" stroke-linejoin="round" d="M 3327,7642 L 3327,7492"/>
 <path fill="none" stroke="rgb(179,179,179)" stroke-linejoin="round" d="M 3327,7642 L 3327,7492"/>
 <path fill="none" stroke="rgb(179,179,179)" stroke-linejoin="round" d="M 3443,7642 L 3443,7492"/>
 <path fill="none" stroke="rgb(179,179,179)" stroke-linejoin="round" d="M 3443,7642 L 3443,7492"/>
 <path fill="none" stroke="rgb(179,179,179)" stroke-linejoin="round" d="M 3559,7642 L 3559,7492"/>
 <path fill="none" stroke="rgb(179,179,179)" stroke-linejoin="round" d="M 3559,7642 L 3559,7492"/>
 <path fill="none" stroke="rgb(179,179,179)" stroke-linejoin="round" d="M 3674,7642 L 3674,7492"/>
 <path fill="none" stroke="rgb(179,179,179)" stroke-linejoin="round" d="M 3674,7642 L 3674,7492"/>
 <path fill="none" stroke="rgb(179,179,179)" stroke-linejoin="round" d="M 3790,7642 L 3790,7492"/>
 <path fill="none" stroke="rgb(179,179,179)" stroke-linejoin="round" d="M 3790,7642 L 3790,7492"/>
 <path fill="none" stroke="rgb(179,179,179)" stroke-linejoin="round" d="M 3906,7642 L 3906,7492"/>
 <path fill="none" stroke="rgb(179,179,179)" stroke-linejoin="round" d="M 3906,7642 L 3906,7492"/>
 <path fill="none" stroke="rgb(179,179,179)" stroke-linejoin="round" d="M 4022,7642 L 4022,7492"/>
 <path fill="none" stroke="rgb(179,179,179)" stroke-linejoin="round" d="M 4022,7642 L 4022,7492"/>
 <path fill="none" stroke="rgb(179,179,179)" stroke-linejoin="round" d="M 4138,7642 L 4138,7492"/>
 <path fill="none" stroke="rgb(179,179,179)" stroke-linejoin="round" d="M 4138,7642 L 4138,7492"/>
 <path fill="none" stroke="rgb(179,179,179)" stroke-linejoin="round" d="M 4253,7642 L 4253,7492"/>
 <path fill="none" stroke="rgb(179,179,179)" stroke-linejoin="round" d="M 4253,7642 L 4253,7492"/>
 <path fill="none" stroke="rgb(179,179,179)" stroke-linejoin="round" d="M 4369,7642 L 4369,7492"/>
 <path fill="none" stroke="rgb(179,179,179)" stroke-linejoin="round" d="M 4369,7642 L 4369,7492"/>
 <path fill="none" stroke="rgb(179,179,179)" stroke-linejoin="round" d="M 4485,7642 L 4485,7492"/>
 <path fill="none" stroke="rgb(179,179,179)" stroke-linejoin="round" d="M 4485,7642 L 4485,7492"/>
 <path fill="none" stroke="rgb(179,179,179)" stroke-linejoin="round" d="M 4601,7642 L 4601,7492"/>
 <path fill="none" stroke="rgb(179,179,179)" stroke-linejoin="round" d="M 4601,7642 L 4601,7492"/>
 <path fill="none" stroke="rgb(179,179,179)" stroke-linejoin="round" d="M 4717,7642 L 4717,7492"/>
 <path fill="none" stroke="rgb(179,179,179)" stroke-linejoin="round" d="M 4717,7642 L 4717,7492"/>
 <path fill="none" stroke="rgb(179,179,179)" stroke-linejoin="round" d="M 4832,7642 L 4832,7492"/>
 <path fill="none" stroke="rgb(179,179,179)" stroke-linejoin="round" d="M 4832,7642 L 4832,7492"/>
 <path fill="none" stroke="rgb(179,179,179)" stroke-linejoin="round" d="M 4948,7642 L 4948,7492"/>
 <path fill="none" stroke="rgb(179,179,179)" stroke-linejoin="round" d="M 4948,7642 L 4948,7492"/>
 <path fill="none" stroke="rgb(179,179,179)" stroke-linejoin="round" d="M 5064,7642 L 5064,7492"/>
 <path fill="none" stroke="rgb(179,179,179)" stroke-linejoin="round" d="M 5064,7642 L 5064,7492"/>
 <path fill="none" stroke="rgb(179,179,179)" stroke-linejoin="round" d="M 5180,7642 L 5180,7492"/>
 <path fill="none" stroke="rgb(179,179,179)" stroke-linejoin="round" d="M 5180,7642 L 5180,7492"/>
 <path fill="none" stroke="rgb(179,179,179)" stroke-linejoin="round" d="M 5296,7642 L 5296,7492"/>
 <path fill="none" stroke="rgb(179,179,179)" stroke-linejoin="round" d="M 5296,7642 L 5296,7492"/>
 <path fill="none" stroke="rgb(179,179,179)" stroke-linejoin="round" d="M 5411,7642 L 5411,7492"/>
 <path fill="none" stroke="rgb(179,179,179)" stroke-linejoin="round" d="M 5411,7642 L 5411,7492"/>
 <path fill="none" stroke="rgb(179,179,179)" stroke-linejoin="round" d="M 5527,7642 L 5527,7492"/>
 <path fill="none" stroke="rgb(179,179,179)" stroke-linejoin="round" d="M 5527,7642 L 5527,7492"/>
 <path fill="none" stroke="rgb(179,179,179)" stroke-linejoin="round" d="M 5643,7642 L 5643,7492"/>
 <path fill="none" stroke="rgb(179,179,179)" stroke-linejoin="round" d="M 5643,7642 L 5643,7492"/>
 <path fill="none" stroke="rgb(179,179,179)" stroke-linejoin="round" d="M 5759,7642 L 5759,7492"/>
 <path fill="none" stroke="rgb(179,179,179)" stroke-linejoin="round" d="M 5759,7642 L 5759,7492"/>
 <path fill="none" stroke="rgb(179,179,179)" stroke-linejoin="round" d="M 5875,7642 L 5875,7492"/>
 <path fill="none" stroke="rgb(179,179,179)" stroke-linejoin="round" d="M 5875,7642 L 5875,7492"/>
 <path fill="none" stroke="rgb(179,179,179)" stroke-linejoin="round" d="M 5991,7642 L 5991,7492"/>
 <path fill="none" stroke="rgb(179,179,179)" stroke-linejoin="round" d="M 5991,7642 L 5991,7492"/>
 <path fill="none" stroke="rgb(179,179,179)" stroke-linejoin="round" d="M 6106,7642 L 6106,7492"/>
 <path fill="none" stroke="rgb(179,179,179)" stroke-linejoin="round" d="M 6106,7642 L 6106,7492"/>
 <path fill="none" stroke="rgb(179,179,179)" stroke-linejoin="round" d="M 6222,7642 L 6222,7492"/>
 <path fill="none" stroke="rgb(179,179,179)" stroke-linejoin="round" d="M 6222,7642 L 6222,7492"/>
 <path fill="none" stroke="rgb(179,179,179)" stroke-linejoin="round" d="M 6338,7642 L 6338,7492"/>
 <path fill="none" stroke="rgb(179,179,179)" stroke-linejoin="round" d="M 6338,7642 L 6338,7492"/>
 <path fill="none" stroke="rgb(179,179,179)" stroke-linejoin="round" d="M 6454,7642 L 6454,7492"/>
 <path fill="none" stroke="rgb(179,179,179)" stroke-linejoin="round" d="M 6454,7642 L 6454,7492"/>
 <path fill="none" stroke="rgb(179,179,179)" stroke-linejoin="round" d="M 6570,7642 L 6570,7492"/>
 <path fill="none" stroke="rgb(179,179,179)" stroke-linejoin="round" d="M 6570,7642 L 6570,7492"/>
 <path fill="none" stroke="rgb(179,179,179)" stroke-linejoin="round" d="M 6685,7642 L 6685,7492"/>
 <path fill="none" stroke="rgb(179,179,179)" stroke-linejoin="round" d="M 6685,7642 L 6685,7492"/>
 <path fill="none" stroke="rgb(179,179,179)" stroke-linejoin="round" d="M 6801,7642 L 6801,7492"/>
 <path fill="none" stroke="rgb(179,179,179)" stroke-linejoin="round" d="M 6801,7642 L 6801,7492"/>
 <path fill="none" stroke="rgb(179,179,179)" stroke-linejoin="round" d="M 6917,7642 L 6917,7492"/>
 <path fill="none" stroke="rgb(179,179,179)" stroke-linejoin="round" d="M 6917,7642 L 6917,7492"/>
 <path fill="none" stroke="rgb(179,179,179)" stroke-linejoin="round" d="M 7033,7642 L 7033,7492"/>
 <path fill="none" stroke="rgb(179,179,179)" stroke-linejoin="round" d="M 7033,7642 L 7033,7492"/>
 <path fill="none" stroke="rgb(179,179,179)" stroke-linejoin="round" d="M 7149,7642 L 7149,7492"/>
 <path fill="none" stroke="rgb(179,179,179)" stroke-linejoin="round" d="M 7149,7642 L 7149,7492"/>
 <path fill="none" stroke="rgb(179,179,179)" stroke-linejoin="round" d="M 7264,7642 L 7264,7492"/>
 <path fill="none" stroke="rgb(179,179,179)" stroke-linejoin="round" d="M 7264,7642 L 7264,7492"/>
 <path fill="none" stroke="rgb(179,179,179)" stroke-linejoin="round" d="M 7380,7642 L 7380,7492"/>
 <path fill="none" stroke="rgb(179,179,179)" stroke-linejoin="round" d="M 7380,7642 L 7380,7492"/>
 <path fill="none" stroke="rgb(179,179,179)" stroke-linejoin="round" d="M 7496,7642 L 7496,7492"/>
 <path fill="none" stroke="rgb(179,179,179)" stroke-linejoin="round" d="M 7496,7642 L 7496,7492"/>
 <path fill="none" stroke="rgb(179,179,179)" stroke-linejoin="round" d="M 7612,7642 L 7612,7492"/>
 <path fill="none" stroke="rgb(179,179,179)" stroke-linejoin="round" d="M 7612,7642 L 7612,7492"/>
 <path fill="none" stroke="rgb(179,179,179)" stroke-linejoin="round" d="M 7728,7642 L 7728,7492"/>
 <path fill="none" stroke="rgb(179,179,179)" stroke-linejoin="round" d="M 7728,7642 L 7728,7492"/>
 <path fill="none" stroke="rgb(179,179,179)" stroke-linejoin="round" d="M 7843,7642 L 7843,7492"/>
 <path fill="none" stroke="rgb(179,179,179)" stroke-linejoin="round" d="M 7843,7642 L 7843,7492"/>
 <path fill="none" stroke="rgb(179,179,179)" stroke-linejoin="round" d="M 7959,7642 L 7959,7492"/>
 <path fill="none" stroke="rgb(179,179,179)" stroke-linejoin="round" d="M 7959,7642 L 7959,7492"/>
 <path fill="none" stroke="rgb(179,179,179)" stroke-linejoin="round" d="M 8074,7642 L 8074,7492"/>
 <path fill="none" stroke="rgb(179,179,179)" stroke-linejoin="round" d="M 8074,7642 L 8074,7492"/>
 <path fill="none" stroke="rgb(179,179,179)" stroke-linejoin="round" d="M 8190,7642 L 8190,7492"/>
 <path fill="none" stroke="rgb(179,179,179)" stroke-linejoin="round" d="M 8190,7642 L 8190,7492"/>
 <path fill="none" stroke="rgb(179,179,179)" stroke-linejoin="round" d="M 8306,7642 L 8306,7492"/>
 <path fill="none" stroke="rgb(179,179,179)" stroke-linejoin="round" d="M 8306,7642 L 8306,7492"/>
 <path fill="none" stroke="rgb(179,179,179)" stroke-linejoin="round" d="M 8422,7642 L 8422,7492"/>
 <path fill="none" stroke="rgb(179,179,179)" stroke-linejoin="round" d="M 8422,7642 L 8422,7492"/>
 <path fill="none" stroke="rgb(179,179,179)" stroke-linejoin="round" d="M 8537,7642 L 8537,7492"/>
 <path fill="none" stroke="rgb(179,179,179)" stroke-linejoin="round" d="M 8537,7642 L 8537,7492"/>
 <path fill="none" stroke="rgb(179,179,179)" stroke-linejoin="round" d="M 8653,7642 L 8653,7492"/>
 <path fill="none" stroke="rgb(179,179,179)" stroke-linejoin="round" d="M 8653,7642 L 8653,7492"/>
 <path fill="none" stroke="rgb(179,179,179)" stroke-linejoin="round" d="M 8769,7642 L 8769,7492"/>
 <path fill="none" stroke="rgb(179,179,179)" stroke-linejoin="round" d="M 8769,7642 L 8769,7492"/>
 <path fill="none" stroke="rgb(179,179,179)" stroke-linejoin="round" d="M 8885,7642 L 8885,7492"/>
 <path fill="none" stroke="rgb(179,179,179)" stroke-linejoin="round" d="M 8885,7642 L 8885,7492"/>
 <path fill="none" stroke="rgb(179,179,179)" stroke-linejoin="round" d="M 9001,7642 L 9001,7492"/>
 <path fill="none" stroke="rgb(179,179,179)" stroke-linejoin="round" d="M 9001,7642 L 9001,7492"/>
 <path fill="none" stroke="rgb(179,179,179)" stroke-linejoin="round" d="M 9116,7642 L 9116,7492"/>
 <path fill="none" stroke="rgb(179,179,179)" stroke-linejoin="round" d="M 9116,7642 L 9116,7492"/>
 <path fill="none" stroke="rgb(179,179,179)" stroke-linejoin="round" d="M 9232,7642 L 9232,7492"/>
 <path fill="none" stroke="rgb(179,179,179)" stroke-linejoin="round" d="M 9232,7642 L 9232,7492"/>
 <path fill="none" stroke="rgb(179,179,179)" stroke-linejoin="round" d="M 9348,7642 L 9348,7492"/>
 <path fill="none" stroke="rgb(179,179,179)" stroke-linejoin="round" d="M 9348,7642 L 9348,7492"/>
 <path fill="none" stroke="rgb(179,179,179)" stroke-linejoin="round" d="M 9464,7642 L 9464,7492"/>
 <path fill="none" stroke="rgb(179,179,179)" stroke-linejoin="round" d="M 9464,7642 L 9464,7492"/>
 <path fill="none" stroke="rgb(179,179,179)" stroke-linejoin="round" d="M 9580,7642 L 9580,7492"/>
 <path fill="none" stroke="rgb(179,179,179)" stroke-linejoin="round" d="M 9580,7642 L 9580,7492"/>
 <path fill="none" stroke="rgb(179,179,179)" stroke-linejoin="round" d="M 9695,7642 L 9695,7492"/>
 <path fill="none" stroke="rgb(179,179,179)" stroke-linejoin="round" d="M 9695,7642 L 9695,7492"/>
 <path fill="none" stroke="rgb(179,179,179)" stroke-linejoin="round" d="M 9811,7642 L 9811,7492"/>
 <path fill="none" stroke="rgb(179,179,179)" stroke-linejoin="round" d="M 9811,7642 L 9811,7492"/>
 <path fill="none" stroke="rgb(179,179,179)" stroke-linejoin="round" d="M 9927,7642 L 9927,7492"/>
 <path fill="none" stroke="rgb(179,179,179)" stroke-linejoin="round" d="M 9927,7642 L 9927,7492"/>
 <path fill="none" stroke="rgb(179,179,179)" stroke-linejoin="round" d="M 10043,7642 L 10043,7492"/>
 <path fill="none" stroke="rgb(179,179,179)" stroke-linejoin="round" d="M 10043,7642 L 10043,7492"/>
 <path fill="none" stroke="rgb(179,179,179)" stroke-linejoin="round" d="M 10159,7642 L 10159,7492"/>
 <path fill="none" stroke="rgb(179,179,179)" stroke-linejoin="round" d="M 10159,7642 L 10159,7492"/>
 <path fill="none" stroke="rgb(179,179,179)" stroke-linejoin="round" d="M 10274,7642 L 10274,7492"/>
 <path fill="none" stroke="rgb(179,179,179)" stroke-linejoin="round" d="M 10274,7642 L 10274,7492"/>
 <path fill="none" stroke="rgb(179,179,179)" stroke-linejoin="round" d="M 10390,7642 L 10390,7492"/>
 <path fill="none" stroke="rgb(179,179,179)" stroke-linejoin="round" d="M 10390,7642 L 10390,7492"/>
 <path fill="none" stroke="rgb(179,179,179)" stroke-linejoin="round" d="M 10506,7642 L 10506,7492"/>
 <path fill="none" stroke="rgb(179,179,179)" stroke-linejoin="round" d="M 10506,7642 L 10506,7492"/>
 <path fill="none" stroke="rgb(179,179,179)" stroke-linejoin="round" d="M 10622,7642 L 10622,7492"/>
 <path fill="none" stroke="rgb(179,179,179)" stroke-linejoin="round" d="M 10622,7642 L 10622,7492"/>
 <path fill="none" stroke="rgb(179,179,179)" stroke-linejoin="round" d="M 10738,7642 L 10738,7492"/>
 <path fill="none" stroke="rgb(179,179,179)" stroke-linejoin="round" d="M 10738,7642 L 10738,7492"/>
 <path fill="none" stroke="rgb(179,179,179)" stroke-linejoin="round" d="M 10854,7642 L 10854,7492"/>
 <path fill="none" stroke="rgb(179,179,179)" stroke-linejoin="round" d="M 10854,7642 L 10854,7492"/>
 <path fill="none" stroke="rgb(179,179,179)" stroke-linejoin="round" d="M 10969,7642 L 10969,7492"/>
 <path fill="none" stroke="rgb(179,179,179)" stroke-linejoin="round" d="M 10969,7642 L 10969,7492"/>
 <path fill="none" stroke="rgb(179,179,179)" stroke-linejoin="round" d="M 11085,7642 L 11085,7492"/>
 <path fill="none" stroke="rgb(179,179,179)" stroke-linejoin="round" d="M 11085,7642 L 11085,7492"/>
 <path fill="none" stroke="rgb(179,179,179)" stroke-linejoin="round" d="M 11201,7642 L 11201,7492"/>
 <path fill="none" stroke="rgb(179,179,179)" stroke-linejoin="round" d="M 11201,7642 L 11201,7492"/>
 <path fill="none" stroke="rgb(179,179,179)" stroke-linejoin="round" d="M 11317,7642 L 11317,7492"/>
 <path fill="none" stroke="rgb(179,179,179)" stroke-linejoin="round" d="M 11317,7642 L 11317,7492"/>
 <path fill="none" stroke="rgb(179,179,179)" stroke-linejoin="round" d="M 11433,7642 L 11433,7492"/>
 <path fill="none" stroke="rgb(179,179,179)" stroke-linejoin="round" d="M 11433,7642 L 11433,7492"/>
 <path fill="none" stroke="rgb(179,179,179)" stroke-linejoin="round" d="M 11548,7642 L 11548,7492"/>
 <path fill="none" stroke="rgb(179,179,179)" stroke-linejoin="round" d="M 11548,7642 L 11548,7492"/>
 <path fill="none" stroke="rgb(179,179,179)" stroke-linejoin="round" d="M 11664,7642 L 11664,7492"/>
 <path fill="none" stroke="rgb(179,179,179)" stroke-linejoin="round" d="M 11664,7642 L 11664,7492"/>
 <path fill="none" stroke="rgb(179,179,179)" stroke-linejoin="round" d="M 11780,7642 L 11780,7492"/>
 <path fill="none" stroke="rgb(179,179,179)" stroke-linejoin="round" d="M 11780,7642 L 11780,7492"/>
 <path fill="none" stroke="rgb(179,179,179)" stroke-linejoin="round" d="M 11896,7642 L 11896,7492"/>
 <path fill="none" stroke="rgb(179,179,179)" stroke-linejoin="round" d="M 11896,7642 L 11896,7492"/>
 <path fill="none" stroke="rgb(179,179,179)" stroke-linejoin="round" d="M 12012,7642 L 12012,7492"/>
 <path fill="none" stroke="rgb(179,179,179)" stroke-linejoin="round" d="M 12012,7642 L 12012,7492"/>
 <path fill="none" stroke="rgb(179,179,179)" stroke-linejoin="round" d="M 12127,7642 L 12127,7492"/>
 <path fill="none" stroke="rgb(179,179,179)" stroke-linejoin="round" d="M 12127,7642 L 12127,7492"/>
 <path fill="none" stroke="rgb(179,179,179)" stroke-linejoin="round" d="M 12243,7642 L 12243,7492"/>
 <path fill="none" stroke="rgb(179,179,179)" stroke-linejoin="round" d="M 12243,7642 L 12243,7492"/>
 <path fill="none" stroke="rgb(179,179,179)" stroke-linejoin="round" d="M 12359,7642 L 12359,7492"/>
 <path fill="none" stroke="rgb(179,179,179)" stroke-linejoin="round" d="M 12359,7642 L 12359,7492"/>
 <path fill="none" stroke="rgb(179,179,179)" stroke-linejoin="round" d="M 12475,7642 L 12475,7492"/>
 <path fill="none" stroke="rgb(179,179,179)" stroke-linejoin="round" d="M 12475,7642 L 12475,7492"/>
 <path fill="none" stroke="rgb(179,179,179)" stroke-linejoin="round" d="M 12591,7642 L 12591,7492"/>
 <path fill="none" stroke="rgb(179,179,179)" stroke-linejoin="round" d="M 12591,7642 L 12591,7492"/>
 <path fill="none" stroke="rgb(179,179,179)" stroke-linejoin="round" d="M 12707,7642 L 12707,7492"/>
 <path fill="none" stroke="rgb(179,179,179)" stroke-linejoin="round" d="M 12707,7642 L 12707,7492"/>
 <path fill="none" stroke="rgb(179,179,179)" stroke-linejoin="round" d="M 1127,7492 L 12707,7492"/>
 <path fill="none" stroke="rgb(179,179,179)" stroke-linejoin="round" d="M 977,7492 L 1127,7492"/>
 <path fill="none" stroke="rgb(179,179,179)" stroke-linejoin="round" d="M 977,7492 L 1127,7492"/>
 <path fill="none" stroke="rgb(179,179,179)" stroke-linejoin="round" d="M 977,5668 L 1127,5668"/>
 <path fill="none" stroke="rgb(179,179,179)" stroke-linejoin="round" d="M 977,5668 L 1127,5668"/>
 <path fill="none" stroke="rgb(179,179,179)" stroke-linejoin="round" d="M 977,3844 L 1127,3844"/>
 <path fill="none" stroke="rgb(179,179,179)" stroke-linejoin="round" d="M 977,3844 L 1127,3844"/>
 <path fill="none" stroke="rgb(179,179,179)" stroke-linejoin="round" d="M 977,2021 L 1127,2021"/>
 <path fill="none" stroke="rgb(179,179,179)" stroke-linejoin="round" d="M 977,2021 L 1127,2021"/>
 <path fill="none" stroke="rgb(179,179,179)" stroke-linejoin="round" d="M 977,198 L 1127,198"/>
 <path fill="none" stroke="rgb(179,179,179)" stroke-linejoin="round" d="M 977,198 L 1127,198"/>
 <path fill="none" stroke="rgb(179,179,179)" stroke-linejoin="round" d="M 1127,7492 L 1127,198"/>
 <path fill="none" stroke="rgb(179,179,179)" stroke-linejoin="round" d="M 12857,7492 L 12707,7492"/>
 <path fill="none" stroke="rgb(179,179,179)" stroke-linejoin="round" d="M 12857,7492 L 12707,7492"/>
 <path fill="none" stroke="rgb(179,179,179)" stroke-linejoin="round" d="M 12857,5668 L 12707,5668"/>
 <path fill="none" stroke="rgb(179,179,179)" stroke-linejoin="round" d="M 12857,5668 L 12707,5668"/>
 <path fill="none" stroke="rgb(179,179,179)" stroke-linejoin="round" d="M 12857,3844 L 12707,3844"/>
 <path fill="none" stroke="rgb(179,179,179)" stroke-linejoin="round" d="M 12857,3844 L 12707,3844"/>
 <path fill="none" stroke="rgb(179,179,179)" stroke-linejoin="round" d="M 12857,2021 L 12707,2021"/>
 <path fill="none" stroke="rgb(179,179,179)" stroke-linejoin="round" d="M 12857,2021 L 12707,2021"/>
 <path fill="none" stroke="rgb(179,179,179)" stroke-linejoin="round" d="M 12857,198 L 12707,198"/>
 <path fill="none" stroke="rgb(179,179,179)" stroke-linejoin="round" d="M 12857,198 L 12707,198"/>
 <path fill="none" stroke="rgb(179,179,179)" stroke-linejoin="round" d="M 12707,7492 L 12707,198"/>
 <path fill="none" stroke="rgb(0,69,134)" stroke-width="80" stroke-linejoin="round" d="M 1127,3844 L 1242,3561 1358,3285 1474,3022 1590,2779 1706,2562 1821,2377 1937,2226 2053,2115 2169,2046 2285,2021 2400,2039 2516,2102 2632,2207 2748,2353 2864,2533 2979,2746 3095,2985 3211,3246 3327,3520 3443,3804 3559,4087 3674,4364 3790,4630 3906,4876 4022,5097 4138,5287 4253,5443 4369,5561 4485,5635 4601,5667 4717,5654 4832,5599 4948,5499 5064,5360 5180,5183 5296,4976 5411,4739 5527,4482 5643,4209 5759,3927 5875,3643 5991,3364 6106,3096 6222,2847 6338,2622 6454,2427 6570,2266 6685,2143 6801,2061 6917,2024 7033,2029 7149,2080 7264,2173 7380,2307 7496,2477 7612,2681 7728,2914 7843,3169 7959,3439 8074,3721 8190,4005 8306,4285 8422,4555 8537,4807 8653,5036 8769,5236 8885,5402 9001,5531 9116,5619 9232,5662 9348,5662 9464,5619 9580,5532 9695,5404 9811,5238 9927,5039 10043,4810 10159,4559 10274,4289 10390,4009 10506,3725 10622,3443 10738,3172 10854,2918 10969,2684 11085,2479 11201,2309 11317,2174 11433,2081 11548,2030 11664,2024 11780,2060 11896,2141 12012,2264 12127,2425 12243,2619 12359,2844 12475,3093 12591,3360 12707,3639"/>
 <path fill="none" stroke="rgb(255,0,0)" stroke-width="80" stroke-linejoin="round" d="M 1127,2932 L 1242,2932 1358,2946 1474,2974 1590,3016 1706,3069 1821,3133 1937,3206 2053,3287 2169,3371 2285,3457 2400,3541 2516,3621 2632,3693 2748,3753 2864,3798 2979,3825 3095,3833 3211,3819 3327,3780 3443,3716 3559,3627 3674,3514 3790,3377 3906,3219 4022,3042 4138,2849 4253,2643 4369,2431 4485,2215 4601,2001 4717,1794 4832,1598 4948,1421 5064,1265 5180,1135 5296,1037 5411,972 5527,943 5643,953 5759,1003 5875,1093 5991,1221 6106,1387 6222,1588 6338,1821 6454,2080 6570,2364 6685,2663 6801,2973 6917,3289 7033,3602 7149,3906 7264,4197 7380,4464 7496,4705 7612,4912 7728,5082 7843,5210 7959,5293 8074,5329 8190,5316 8306,5255 8422,5147 8537,4993 8653,4796 8769,4561 8885,4291 9001,3994 9116,3674 9232,3340 9348,2996 9464,2652 9580,2315 9695,1991 9811,1688 9927,1412 10043,1169 10159,965 10274,802 10390,686 10506,619 10622,601 10738,632 10854,712 10969,839 11085,1011 11201,1221 11317,1467 11433,1742 11548,2040 11664,2354 11780,2677 11896,3001 12012,3321 12127,3628 12243,3915 12359,4177 12475,4407 12591,4601 12707,4754"/>
 <text class="TextShape" transform="rotate(-44.9 1079 8098)"><tspan class="TextParagraph" font-family="Liberation Sans, sans-serif" font-size="353px" font-weight="400"><tspan class="TextPosition" x="1079" y="8098"><tspan fill="rgb(0,0,0)" stroke="none">0</tspan></tspan></tspan></text>
 <text class="TextShape" transform="rotate(-44.9 1321 8433)"><tspan class="TextParagraph" font-family="Liberation Sans, sans-serif" font-size="353px" font-weight="400"><tspan class="TextPosition" x="1321" y="8433"><tspan fill="rgb(0,0,0)" stroke="none">1,25</tspan></tspan></tspan></text>
 <text class="TextShape" transform="rotate(-44.9 2032 8301)"><tspan class="TextParagraph" font-family="Liberation Sans, sans-serif" font-size="353px" font-weight="400"><tspan class="TextPosition" x="2032" y="8301"><tspan fill="rgb(0,0,0)" stroke="none">2,5</tspan></tspan></tspan></text>
 <text class="TextShape" transform="rotate(-44.9 2479 8433)"><tspan class="TextParagraph" font-family="Liberation Sans, sans-serif" font-size="353px" font-weight="400"><tspan class="TextPosition" x="2479" y="8433"><tspan fill="rgb(0,0,0)" stroke="none">3,75</tspan></tspan></tspan></text>
 <text class="TextShape" transform="rotate(-44.9 3395 8098)"><tspan class="TextParagraph" font-family="Liberation Sans, sans-serif" font-size="353px" font-weight="400"><tspan class="TextPosition" x="3395" y="8098"><tspan fill="rgb(0,0,0)" stroke="none">5</tspan></tspan></tspan></text>
 <text class="TextShape" transform="rotate(-44.9 3637 8433)"><tspan class="TextParagraph" font-family="Liberation Sans, sans-serif" font-size="353px" font-weight="400"><tspan class="TextPosition" x="3637" y="8433"><tspan fill="rgb(0,0,0)" stroke="none">6,25</tspan></tspan></tspan></text>
 <text class="TextShape" transform="rotate(-44.9 4348 8301)"><tspan class="TextParagraph" font-family="Liberation Sans, sans-serif" font-size="353px" font-weight="400"><tspan class="TextPosition" x="4348" y="8301"><tspan fill="rgb(0,0,0)" stroke="none">7,5</tspan></tspan></tspan></text>
 <text class="TextShape" transform="rotate(-44.9 4795 8433)"><tspan class="TextParagraph" font-family="Liberation Sans, sans-serif" font-size="353px" font-weight="400"><tspan class="TextPosition" x="4795" y="8433"><tspan fill="rgb(0,0,0)" stroke="none">8,75</tspan></tspan></tspan></text>
 <text class="TextShape" transform="rotate(-44.9 5580 8227)"><tspan class="TextParagraph" font-family="Liberation Sans, sans-serif" font-size="353px" font-weight="400"><tspan class="TextPosition" x="5580" y="8227"><tspan fill="rgb(0,0,0)" stroke="none">10</tspan></tspan></tspan></text>
 <text class="TextShape" transform="rotate(-44.9 5822 8564)"><tspan class="TextParagraph" font-family="Liberation Sans, sans-serif" font-size="353px" font-weight="400"><tspan class="TextPosition" x="5822" y="8564"><tspan fill="rgb(0,0,0)" stroke="none">11,25</tspan></tspan></tspan></text>
 <text class="TextShape" transform="rotate(-44.9 6532 8433)"><tspan class="TextParagraph" font-family="Liberation Sans, sans-serif" font-size="353px" font-weight="400"><tspan class="TextPosition" x="6532" y="8433"><tspan fill="rgb(0,0,0)" stroke="none">12,5</tspan></tspan></tspan></text>
 <text class="TextShape" transform="rotate(-44.9 6980 8564)"><tspan class="TextParagraph" font-family="Liberation Sans, sans-serif" font-size="353px" font-weight="400"><tspan class="TextPosition" x="6980" y="8564"><tspan fill="rgb(0,0,0)" stroke="none">13,75</tspan></tspan></tspan></text>
 <text class="TextShape" transform="rotate(-44.9 7896 8227)"><tspan class="TextParagraph" font-family="Liberation Sans, sans-serif" font-size="353px" font-weight="400"><tspan class="TextPosition" x="7896" y="8227"><tspan fill="rgb(0,0,0)" stroke="none">15</tspan></tspan></tspan></text>
 <text class="TextShape" transform="rotate(-44.9 8138 8564)"><tspan class="TextParagraph" font-family="Liberation Sans, sans-serif" font-size="353px" font-weight="400"><tspan class="TextPosition" x="8138" y="8564"><tspan fill="rgb(0,0,0)" stroke="none">16,25</tspan></tspan></tspan></text>
 <text class="TextShape" transform="rotate(-44.9 8848 8433)"><tspan class="TextParagraph" font-family="Liberation Sans, sans-serif" font-size="353px" font-weight="400"><tspan class="TextPosition" x="8848" y="8433"><tspan fill="rgb(0,0,0)" stroke="none">17,5</tspan></tspan></tspan></text>
 <text class="TextShape" transform="rotate(-44.9 9296 8564)"><tspan class="TextParagraph" font-family="Liberation Sans, sans-serif" font-size="353px" font-weight="400"><tspan class="TextPosition" x="9296" y="8564"><tspan fill="rgb(0,0,0)" stroke="none">18,75</tspan></tspan></tspan></text>
 <text class="TextShape" transform="rotate(-44.9 10212 8227)"><tspan class="TextParagraph" font-family="Liberation Sans, sans-serif" font-size="353px" font-weight="400"><tspan class="TextPosition" x="10212" y="8227"><tspan fill="rgb(0,0,0)" stroke="none">20</tspan></tspan></tspan></text>
 <text class="TextShape" transform="rotate(-44.9 10454 8564)"><tspan class="TextParagraph" font-family="Liberation Sans, sans-serif" font-size="353px" font-weight="400"><tspan class="TextPosition" x="10454" y="8564"><tspan fill="rgb(0,0,0)" stroke="none">21,25</tspan></tspan></tspan></text>
 <text class="TextShape" transform="rotate(-44.9 11164 8433)"><tspan class="TextParagraph" font-family="Liberation Sans, sans-serif" font-size="353px" font-weight="400"><tspan class="TextPosition" x="11164" y="8433"><tspan fill="rgb(0,0,0)" stroke="none">22,5</tspan></tspan></tspan></text>
 <text class="TextShape" transform="rotate(-44.9 11611 8564)"><tspan class="TextParagraph" font-family="Liberation Sans, sans-serif" font-size="353px" font-weight="400"><tspan class="TextPosition" x="11611" y="8564"><tspan fill="rgb(0,0,0)" stroke="none">23,75</tspan></tspan></tspan></text>
 <text class="TextShape" transform="rotate(-44.9 12528 8227)"><tspan class="TextParagraph" font-family="Liberation Sans, sans-serif" font-size="353px" font-weight="400"><tspan class="TextPosition" x="12528" y="8227"><tspan fill="rgb(0,0,0)" stroke="none">25</tspan></tspan></tspan></text>
 <text class="TextShape"><tspan class="TextParagraph" font-family="Liberation Sans, sans-serif" font-size="352px" font-weight="400"><tspan class="TextPosition" x="321" y="7613"><tspan fill="rgb(0,0,0)" stroke="none">175</tspan></tspan></tspan></text>
 <text class="TextShape"><tspan class="TextParagraph" font-family="Liberation Sans, sans-serif" font-size="352px" font-weight="400"><tspan class="TextPosition" x="321" y="5789"><tspan fill="rgb(0,0,0)" stroke="none">225</tspan></tspan></tspan></text>
 <text class="TextShape"><tspan class="TextParagraph" font-family="Liberation Sans, sans-serif" font-size="352px" font-weight="400"><tspan class="TextPosition" x="321" y="3965"><tspan fill="rgb(0,0,0)" stroke="none">275</tspan></tspan></tspan></text>
 <text class="TextShape"><tspan class="TextParagraph" font-family="Liberation Sans, sans-serif" font-size="352px" font-weight="400"><tspan class="TextPosition" x="321" y="2141"><tspan fill="rgb(0,0,0)" stroke="none">325</tspan></tspan></tspan></text>
 <text class="TextShape"><tspan class="TextParagraph" font-family="Liberation Sans, sans-serif" font-size="352px" font-weight="400"><tspan class="TextPosition" x="321" y="318"><tspan fill="rgb(0,0,0)" stroke="none">375</tspan></tspan></tspan></text>
 <text class="TextShape"><tspan class="TextParagraph" font-family="Liberation Sans, sans-serif" font-size="352px" font-weight="400"><tspan class="TextPosition" x="12957" y="7613"><tspan fill="rgb(0,0,0)" stroke="none">80</tspan></tspan></tspan></text>
 <text class="TextShape"><tspan class="TextParagraph" font-family="Liberation Sans, sans-serif" font-size="352px" font-weight="400"><tspan class="TextPosition" x="12957" y="5789"><tspan fill="rgb(0,0,0)" stroke="none">90</tspan></tspan></tspan></text>
 <text class="TextShape"><tspan class="TextParagraph" font-family="Liberation Sans, sans-serif" font-size="352px" font-weight="400"><tspan class="TextPosition" x="12957" y="3965"><tspan fill="rgb(0,0,0)" stroke="none">100</tspan></tspan></tspan></text>
 <text class="TextShape"><tspan class="TextParagraph" font-family="Liberation Sans, sans-serif" font-size="352px" font-weight="400"><tspan class="TextPosition" x="12957" y="2141"><tspan fill="rgb(0,0,0)" stroke="none">110</tspan></tspan></tspan></text>
 <text class="TextShape"><tspan class="TextParagraph" font-family="Liberation Sans, sans-serif" font-size="352px" font-weight="400"><tspan class="TextPosition" x="12957" y="318"><tspan fill="rgb(0,0,0)" stroke="none">120</tspan></tspan></tspan></text>
 <path fill="none" stroke="rgb(0,69,134)" stroke-width="80" stroke-linejoin="round" d="M 13951,4260 L 14751,4260"/>
 <path fill="none" stroke="rgb(255,0,0)" stroke-width="80" stroke-linejoin="round" d="M 13951,4756 L 14751,4756"/>
 <text class="TextShape"><tspan class="TextParagraph" font-family="Liberation Sans, sans-serif" font-size="352px" font-weight="400"><tspan class="TextPosition" x="14851" y="4379"><tspan fill="rgb(0,0,0)" stroke="none">SHIP</tspan></tspan></tspan></text>
 <text class="TextShape"><tspan class="TextParagraph" font-family="Liberation Sans, sans-serif" font-size="352px" font-weight="400"><tspan class="TextPosition" x="14851" y="4876"><tspan fill="rgb(0,0,0)" stroke="none">INV</tspan></tspan></tspan></text>
</svg>